<svg width="89" height="32" viewBox="0 0 89 32" fill="none" xmlns="http://www.w3.org/2000/svg">
<g clip-path="url(#clip0_230_11830)">
<path d="M5.21287 1.33667H6.53249L11.563 13.3039H9.92372L8.72296 10.3638H2.80725L1.58804 13.3039H0L5.21287 1.33667ZM5.84809 3.16343H5.81531L3.3564 9.04554H8.19634L5.84809 3.16343Z" fill="#697077"/>
<path d="M11.8296 5.39423H13.1328V6.54441H13.1676C13.5079 6.12822 13.9316 5.78807 14.4114 5.54595C14.9001 5.30544 15.4386 5.18391 15.9831 5.19126C16.5584 5.18405 17.1294 5.29065 17.6633 5.50495C18.1514 5.70027 18.5927 5.9965 18.9584 6.37424C19.32 6.75512 19.604 7.20291 19.7944 7.69254C20.1932 8.76088 20.1932 9.93738 19.7944 11.0057C19.608 11.4936 19.3298 11.9411 18.9748 12.324C18.6239 12.6963 18.2006 12.9929 17.731 13.1954C17.2452 13.4051 16.7211 13.5113 16.1921 13.507C15.5469 13.5212 14.9098 13.3611 14.3479 13.0436C13.8631 12.7778 13.4616 12.3824 13.1881 11.9017H13.1533V17.1585H11.8296V5.39423ZM13.1328 9.34913C13.1265 9.74321 13.1897 10.1353 13.3193 10.5075C13.4395 10.8512 13.6287 11.1665 13.8754 11.4342C14.1221 11.7018 14.421 11.916 14.7536 12.0636C15.4865 12.367 16.3096 12.367 17.0425 12.0636C17.375 11.9163 17.6741 11.7029 17.9215 11.4363C18.1682 11.1672 18.3584 10.8514 18.4809 10.5075C18.735 9.75617 18.735 8.94208 18.4809 8.19075C18.3584 7.84686 18.1682 7.53105 17.9215 7.26199C17.674 6.99598 17.3749 6.78321 17.0425 6.63667C16.3096 6.33334 15.4865 6.33334 14.7536 6.63667C14.4218 6.7832 14.1234 6.99599 13.8766 7.26199C13.6289 7.53374 13.4392 7.85328 13.3193 8.201C13.1912 8.57003 13.1281 8.9585 13.1328 9.34913Z" fill="#697077"/>
<path d="M21.1057 7.27018C21.1057 6.90934 21.0934 6.57105 21.0709 6.25531C21.0483 5.93958 21.0381 5.65255 21.0381 5.39422H22.2675C22.2675 5.59924 22.2675 5.82272 22.2839 6.03594C22.3003 6.24916 22.3003 6.47059 22.3003 6.69611H22.3352C22.4327 6.49264 22.5597 6.30472 22.7122 6.13845C22.8804 5.95146 23.0743 5.78925 23.288 5.65665C23.5221 5.51016 23.7751 5.39634 24.04 5.31836C24.3326 5.23185 24.6365 5.18902 24.9416 5.19124C25.0313 5.1916 25.1209 5.19708 25.21 5.20765C25.301 5.22049 25.3903 5.24318 25.4764 5.2753L25.3924 6.61205C25.1652 6.54333 24.929 6.50878 24.6916 6.50954C23.8884 6.50954 23.3064 6.77197 22.9458 7.29683C22.5851 7.82169 22.4055 8.53995 22.4069 9.45162V13.304H21.1057V7.27018Z" fill="#697077"/>
<path d="M32.6664 11.8688C32.2696 12.4175 31.7401 12.8563 31.1275 13.1441C30.5132 13.3971 29.8533 13.5206 29.1891 13.507C28.6209 13.5163 28.0572 13.4045 27.5355 13.1789C27.0652 12.9747 26.6419 12.676 26.2917 12.3014C25.9452 11.9181 25.6778 11.4701 25.5048 10.9831C25.3198 10.4619 25.2268 9.91246 25.2302 9.35936C25.2241 8.78499 25.3263 8.21462 25.5315 7.67817C25.7164 7.18506 26.0002 6.73503 26.3654 6.35577C26.7257 5.98649 27.1582 5.69545 27.6359 5.50082C28.1453 5.2944 28.6907 5.19126 29.2403 5.19739C29.7519 5.19041 30.2599 5.28302 30.7361 5.47007C31.1846 5.65301 31.587 5.93308 31.9144 6.29016C32.2575 6.66415 32.5191 7.10539 32.6828 7.58591C32.8688 8.14982 32.9588 8.74099 32.9492 9.33475V9.7571H26.638C26.6596 10.0929 26.7415 10.4221 26.8798 10.7289C27.0115 11.0319 27.1953 11.3094 27.4228 11.549C27.6459 11.7795 27.9108 11.9653 28.2035 12.0964C28.5136 12.2344 28.8497 12.3043 29.1891 12.3014C29.6848 12.3162 30.1767 12.2114 30.6234 11.996C31.0338 11.7759 31.3922 11.4704 31.6746 11.1L32.6664 11.8688ZM31.5558 8.63973C31.5619 8.0335 31.3276 7.44957 30.9042 7.01594C30.4943 6.6059 29.9261 6.40087 29.1993 6.40087C28.5576 6.37442 27.9301 6.59446 27.4453 7.01594C26.9875 7.44077 26.7005 8.01815 26.638 8.63973H31.5558Z" fill="#697077"/>
<path d="M33.9679 7.27005C33.9679 6.90921 33.9577 6.57092 33.9351 6.25518C33.9126 5.93945 33.9023 5.65241 33.9023 5.39408H35.1318C35.1318 5.59911 35.1318 5.82258 35.1482 6.03581C35.1646 6.24903 35.1666 6.47046 35.1666 6.69598H35.1994C35.2954 6.49213 35.4218 6.30409 35.5744 6.13832C35.7439 5.95186 35.9384 5.78973 36.1522 5.65651C36.3862 5.50966 36.6392 5.39582 36.9043 5.31823C37.1969 5.23157 37.5007 5.18874 37.8059 5.19111C38.2611 5.18053 38.7138 5.26068 39.1378 5.42689C39.4935 5.57314 39.811 5.79897 40.066 6.08706C40.3193 6.38522 40.5046 6.73504 40.609 7.11218C40.729 7.53837 40.7877 7.97951 40.7832 8.42228V13.3039H39.48V8.55554C39.48 7.88922 39.3365 7.36641 39.0456 6.98301C38.7546 6.59962 38.3058 6.40895 37.6932 6.40895C37.3165 6.39843 36.9424 6.47343 36.5989 6.62832C36.3032 6.77033 36.0485 6.98558 35.8592 7.25364C35.6547 7.54442 35.5073 7.87142 35.4248 8.21725C35.3271 8.61988 35.2796 9.03308 35.2834 9.44739V13.3039H33.9782L33.9679 7.27005Z" fill="#697077"/>
<path d="M48.7558 11.9016H48.723C48.4481 12.382 48.0461 12.7772 47.5612 13.0436C46.9993 13.3611 46.3622 13.5212 45.717 13.507C45.1886 13.5113 44.6652 13.4051 44.1802 13.1953C43.7096 12.9934 43.2856 12.6968 42.9343 12.324C42.5785 11.9417 42.3002 11.494 42.1147 11.0057C41.7131 9.93785 41.7131 8.76034 42.1147 7.69251C42.3036 7.20259 42.587 6.75465 42.9487 6.37421C43.3144 5.99646 43.7557 5.70024 44.2437 5.50491C44.7777 5.29083 45.3487 5.18423 45.924 5.19123C46.465 5.18549 46.9998 5.30698 47.4854 5.54592C47.9655 5.78852 48.3898 6.12857 48.7312 6.54438H48.764V0.524902H50.0672V13.304H48.764L48.7558 11.9016ZM48.7558 9.34909C48.7586 8.95811 48.6934 8.56962 48.5632 8.20097C48.4428 7.85769 48.2534 7.54272 48.0067 7.27545C47.76 7.00818 47.4613 6.79427 47.1288 6.64689C46.396 6.34356 45.5728 6.34356 44.84 6.64689C44.5076 6.79427 44.2088 7.00818 43.9621 7.27545C43.7154 7.54272 43.5261 7.85769 43.4056 8.20097C43.1488 8.95184 43.1488 9.76685 43.4056 10.5177C43.5258 10.8614 43.7151 11.1767 43.9618 11.4444C44.2085 11.712 44.5074 11.9262 44.84 12.0739C45.5728 12.3772 46.396 12.3772 47.1288 12.0739C47.4615 11.9262 47.7603 11.712 48.007 11.4444C48.2537 11.1767 48.443 10.8614 48.5632 10.5177C48.6961 10.1427 48.7613 9.74698 48.7558 9.34909Z" fill="#697077"/>
<path d="M58.4463 11.8687C58.0507 12.4177 57.5218 12.8566 56.9095 13.144C56.2951 13.397 55.6352 13.5205 54.971 13.5069C54.4028 13.5162 53.8391 13.4044 53.3174 13.1788C52.8472 12.9746 52.4239 12.6759 52.0736 12.3013C51.7272 11.918 51.4598 11.47 51.2868 10.983C51.104 10.458 51.0146 9.90495 51.0225 9.34901C51.0166 8.77486 51.1181 8.20467 51.3216 7.66783C51.5062 7.17949 51.787 6.73327 52.1474 6.35568C52.5077 5.9864 52.9402 5.69536 53.4178 5.50073C53.9273 5.29431 54.4727 5.19117 55.0223 5.1973C55.537 5.19121 56.0479 5.28593 56.5263 5.47613C56.974 5.65933 57.3757 5.93939 57.7025 6.29622C58.0426 6.66865 58.3015 7.10783 58.4627 7.58582C58.6494 8.14961 58.7402 8.74078 58.7311 9.33466V9.75701H52.4158C52.438 10.0926 52.5213 10.4212 52.6617 10.7268C52.7935 11.0297 52.9773 11.3073 53.2047 11.5469C53.4272 11.7785 53.6923 11.9651 53.9854 12.0963C54.2956 12.2343 54.6316 12.3042 54.971 12.3013C55.4667 12.3161 55.9587 12.2113 56.4054 11.9959C56.8157 11.7758 57.1742 11.4703 57.4566 11.0999L58.4463 11.8687ZM57.3275 8.63963C57.3337 8.03341 57.0993 7.44948 56.6759 7.01585C56.2661 6.60581 55.6978 6.40078 54.971 6.40078C54.3293 6.3739 53.7016 6.59401 53.217 7.01585C52.7615 7.44164 52.4767 8.01891 52.4158 8.63963H57.3275Z" fill="#697077"/>
<path d="M60.5176 5.29175H62.0646V6.54445H62.1015C62.1678 6.38571 62.2646 6.24153 62.3863 6.12005C62.5615 5.93464 62.7598 5.7727 62.9765 5.63824C63.2415 5.47455 63.5257 5.34439 63.8228 5.25075C64.1713 5.14063 64.5351 5.08665 64.9006 5.09083C65.4698 5.0716 66.0343 5.1994 66.5398 5.46192C66.9976 5.72647 67.3735 6.11245 67.6259 6.57725C67.8995 6.09033 68.3177 5.70057 68.8225 5.46192C69.3095 5.22098 69.8448 5.09408 70.388 5.09083C70.9561 5.06967 71.5219 5.17324 72.0457 5.39427C72.4451 5.57313 72.7932 5.84948 73.058 6.19796C73.3049 6.53483 73.4768 6.92074 73.5621 7.32968C73.6555 7.7601 73.7022 8.19934 73.7014 8.63978V13.3041H72.0457V8.84275C72.0462 8.54833 72.0242 8.25431 71.9802 7.9632C71.9436 7.6994 71.8529 7.44602 71.7138 7.21897C71.5723 6.99969 71.3749 6.82207 71.1421 6.70436C70.8382 6.5584 70.5036 6.48807 70.1667 6.49934C69.3703 6.49934 68.7993 6.72487 68.4537 7.17592C68.0939 7.68291 67.9129 8.29531 67.9394 8.91656V13.3041H66.2817V9.11338C66.283 8.76316 66.2618 8.41321 66.2181 8.06572C66.1835 7.77873 66.096 7.50066 65.9599 7.24562C65.8322 7.01514 65.6399 6.82702 65.4067 6.70436C65.1059 6.55806 64.7738 6.48767 64.4395 6.49934C64.1466 6.4992 63.8562 6.55342 63.583 6.65926C63.3092 6.7666 63.0613 6.93081 62.8556 7.14106C62.6353 7.37714 62.4665 7.6564 62.3597 7.96115C62.2295 8.33881 62.1671 8.73653 62.1753 9.13594V13.3041H60.5176V5.29175Z" fill="#697077"/>
<path d="M75.0804 6.2738C75.5325 5.87443 76.0619 5.57227 76.6356 5.38605C77.2017 5.19256 77.7955 5.09283 78.3937 5.09082C78.926 5.07902 79.4567 5.15309 79.9654 5.31019C80.3614 5.43216 80.7288 5.63301 81.0452 5.90066C81.3128 6.13489 81.5231 6.42736 81.66 6.7556C81.7945 7.07348 81.8641 7.41503 81.8649 7.76022V11.8504C81.8649 12.1334 81.8649 12.3917 81.8833 12.6295C81.9018 12.8673 81.912 13.0908 81.9366 13.304H80.5289C80.4947 12.894 80.477 12.4887 80.4756 12.0883H80.4408C80.1362 12.5646 79.7038 12.9454 79.1929 13.1872C78.6655 13.4097 78.0972 13.5187 77.5249 13.507C77.1501 13.5094 76.7768 13.4583 76.4164 13.3553C76.083 13.2633 75.7701 13.1088 75.4943 12.9001C75.2363 12.6979 75.0263 12.4409 74.8795 12.1477C74.7208 11.8247 74.6421 11.4681 74.6501 11.1082C74.6302 10.6491 74.751 10.1949 74.9963 9.80635C75.2499 9.44566 75.5875 9.15221 75.9799 8.9514C76.4381 8.71772 76.9306 8.55854 77.4389 8.47985C78.0279 8.38113 78.6243 8.33311 79.2216 8.33633H80.3813V7.99599C80.3809 7.7849 80.3391 7.57594 80.2584 7.38092C80.1741 7.17459 80.0486 6.98763 79.8896 6.83146C79.7139 6.66029 79.5046 6.52762 79.2748 6.44192C78.993 6.34094 78.6951 6.2923 78.3958 6.2984C78.127 6.29498 77.8588 6.32319 77.5966 6.38246C77.3862 6.43298 77.1805 6.50157 76.9819 6.58749C76.8018 6.66832 76.6308 6.76797 76.4717 6.88477C76.3201 6.99753 76.1725 7.10414 76.0332 7.2046L75.0804 6.2738ZM79.5433 9.45166C79.1683 9.45166 78.7831 9.47011 78.3917 9.50906C78.0268 9.54365 77.6671 9.62071 77.32 9.73869C77.0243 9.83551 76.7541 9.99733 76.5291 10.2123C76.4279 10.3141 76.3488 10.4356 76.2966 10.5692C76.2445 10.7029 76.2203 10.8459 76.2258 10.9893C76.2099 11.1835 76.2464 11.3784 76.3315 11.5537C76.4165 11.7289 76.547 11.8781 76.7094 11.9857C77.1064 12.2111 77.5586 12.3205 78.0147 12.3015C78.394 12.3142 78.7715 12.2442 79.1212 12.0965C79.3948 11.9759 79.6388 11.7969 79.836 11.572C80.0331 11.3471 80.1787 11.0817 80.2625 10.7946C80.3429 10.5286 80.3844 10.2523 80.3854 9.97447V9.45166H79.5433Z" fill="#697077"/>
<path d="M87.6128 7.30507C87.4304 7.07604 87.2065 6.88339 86.953 6.73715C86.6584 6.57738 86.3268 6.49884 85.9919 6.50958C85.6678 6.50143 85.3474 6.57999 85.0637 6.73715C84.9427 6.80096 84.8419 6.89737 84.7727 7.01547C84.7035 7.13358 84.6688 7.26869 84.6723 7.40553C84.6681 7.51161 84.686 7.61742 84.7248 7.71624C84.7636 7.81505 84.8225 7.90473 84.8977 7.97959C85.0524 8.1306 85.2337 8.25156 85.4325 8.33633C85.6438 8.43006 85.8652 8.49887 86.0923 8.54136L86.6948 8.66027C87.0041 8.73564 87.308 8.83153 87.6046 8.9473C87.8732 9.05104 88.122 9.20014 88.3402 9.3881C88.5467 9.57021 88.7116 9.79467 88.8238 10.0462C88.9486 10.346 89.0086 10.6688 89 10.9934C89.0143 11.3959 88.9194 11.7948 88.7254 12.1477C88.5425 12.4616 88.291 12.73 87.9898 12.933C87.6784 13.1415 87.331 13.2903 86.9652 13.3717C86.5845 13.4614 86.1946 13.5068 85.8034 13.507C85.2127 13.5194 84.6253 13.4163 84.074 13.2036C83.5312 12.9694 83.0664 12.5854 82.7339 12.0965L83.8691 11.1492C84.1171 11.399 84.3919 11.6204 84.6887 11.8094C85.0211 12.0089 85.4037 12.1086 85.7911 12.0965C85.9845 12.0958 86.1774 12.0758 86.3669 12.037C86.5485 12.0027 86.7235 11.9397 86.8853 11.8504C87.0299 11.7717 87.1557 11.6626 87.2542 11.5306C87.3487 11.4002 87.3984 11.2426 87.3956 11.0816C87.4038 10.8759 87.3301 10.6753 87.1906 10.5239C87.0455 10.3715 86.8704 10.2507 86.6763 10.1692C86.4778 10.083 86.2721 10.0144 86.0616 9.96422C85.8444 9.91296 85.6518 9.87196 85.4838 9.8371C85.1733 9.76272 84.8669 9.67239 84.5658 9.56647C84.2894 9.47169 84.03 9.33326 83.7974 9.15643C83.5726 8.98524 83.3897 8.76509 83.2625 8.51265C83.1184 8.21239 83.0482 7.882 83.0576 7.54904C83.0487 7.16997 83.1376 6.795 83.3158 6.46037C83.4879 6.15703 83.726 5.89636 84.0125 5.69769C84.3061 5.48977 84.6343 5.33566 84.9817 5.24253C85.851 4.99718 86.7774 5.0506 87.6128 5.39425C88.1033 5.6003 88.5139 5.96001 88.7828 6.41937L87.6128 7.30507Z" fill="#697077"/>
<path d="M80.4081 1.29785H78.6848C78.549 1.29785 78.4187 1.35185 78.3226 1.44798C78.2265 1.5441 78.1726 1.67447 78.1726 1.81041C78.1726 1.94635 78.2265 2.07672 78.3226 2.17284C78.4187 2.26897 78.549 2.32297 78.6848 2.32297H79.6295L78.2607 3.69047C78.213 3.73791 78.1752 3.7943 78.1494 3.8564C78.1236 3.9185 78.1104 3.98509 78.1104 4.05234C78.1104 4.11959 78.1236 4.18618 78.1494 4.24828C78.1752 4.31038 78.213 4.36677 78.2607 4.4142C78.3076 4.46226 78.3638 4.50044 78.4257 4.52649C78.4876 4.55255 78.5541 4.56595 78.6213 4.56592C78.6888 4.56577 78.7555 4.55229 78.8178 4.52626C78.88 4.50022 78.9365 4.46214 78.984 4.4142L80.3548 3.0426V3.9898C80.3548 4.12574 80.4088 4.25611 80.5049 4.35224C80.601 4.44836 80.7312 4.50236 80.8671 4.50236C81.003 4.50236 81.1333 4.44836 81.2293 4.35224C81.3254 4.25611 81.3794 4.12574 81.3794 3.9898V2.30862C81.144 2.23839 80.9309 2.10838 80.7607 1.93125C80.5905 1.75412 80.469 1.5359 80.4081 1.29785Z" fill="#697077"/>
<path d="M81.7829 1.90671C82.3091 1.90671 82.7357 1.47988 82.7357 0.953357C82.7357 0.426833 82.3091 0 81.7829 0C81.2567 0 80.8301 0.426833 80.8301 0.953357C80.8301 1.47988 81.2567 1.90671 81.7829 1.90671Z" fill="#697077"/>
<path d="M86.1392 26.653L86.1023 26.6079L86.1392 26.5648C86.9874 25.4881 87.8916 24.4568 88.8481 23.4751H87.9916C87.4506 23.4751 87.0777 23.5346 86.6863 23.9036C85.9299 24.6822 85.2352 25.5185 84.6086 26.4049L84.4836 26.573L84.5 21.5725H82.9304L82.916 30.2429H84.4774V26.7268L84.6024 26.897C85.3249 27.929 86.1127 28.9138 86.9609 29.8452C87.2444 30.1258 87.6237 30.2885 88.0223 30.3003C88.4526 30.3003 88.6965 30.1896 88.8666 29.9805C88.4383 29.4515 86.6597 27.3152 86.1331 26.653" fill="#697077"/>
<path d="M55.0919 23.2436C53.1863 23.2436 51.8318 24.6459 51.8134 26.934C51.8005 27.3718 51.8754 27.8077 52.0336 28.2161C52.1919 28.6244 52.4302 28.997 52.7346 29.3117C53.039 29.6264 53.4034 29.877 53.8061 30.0485C54.2089 30.2201 54.6419 30.3093 55.0796 30.3107C56.0652 30.3107 56.6779 30.1569 57.0344 29.8617V28.7033C56.5205 28.9378 55.9599 29.0521 55.3952 29.0375C54.3706 29.0375 53.551 28.4655 53.426 27.549L53.4137 27.4691H54.6042C55.723 27.4691 56.514 27.3686 57.0119 27.1165C57.5098 26.8643 57.725 26.4809 57.727 25.8617C57.727 24.2502 56.4607 23.2497 55.0796 23.2456M55.8624 26.2431C55.553 26.3538 55.0571 26.3968 54.2538 26.3948H53.4219V26.3189L53.4322 26.0872C53.4731 25.2671 54.0715 24.5455 54.9321 24.5475C55.2792 24.5316 55.6222 24.6287 55.9095 24.8243C56.0342 24.9237 56.1335 25.0515 56.199 25.197C56.2646 25.3424 56.2946 25.5014 56.2865 25.6608C56.2937 25.7928 56.2547 25.9232 56.1762 26.0294C56.0976 26.1357 55.9845 26.2113 55.8562 26.2431M58.5549 25.8925V30.1979H60.1183V26.1979C60.1183 25.6628 60.2249 25.2753 60.44 25.0191C60.5564 24.8922 60.7001 24.7935 60.8602 24.7303C61.0202 24.6671 61.1926 24.641 61.3642 24.6541C61.507 24.6531 61.6496 24.6648 61.7904 24.689V23.4219C61.5442 23.3028 61.2728 23.2451 60.9994 23.2538C59.2495 23.2538 58.5631 24.5229 58.5549 25.8863M38.0005 30.1549H39.5598L39.5762 21.4722H38.0169L38.0005 30.1549ZM43.781 23.2231C41.6991 23.2231 40.7872 24.6787 40.779 26.1098V30.159H42.3302V26.2267C42.31 25.799 42.4382 25.3775 42.6929 25.0334C42.8082 24.8935 42.9541 24.7819 43.1193 24.7073C43.2845 24.6326 43.4646 24.5969 43.6457 24.6029C43.8439 24.59 44.0424 24.6216 44.2267 24.6954C44.4111 24.7692 44.5766 24.8833 44.7112 25.0293C44.9612 25.3246 45.0862 25.7654 45.0862 26.3558V30.161H46.6353V26.2041C46.6353 24.2748 45.3547 23.219 43.7851 23.2128M49.3832 21.4947H47.8402V27.7602C47.8402 29.3492 48.625 30.2882 50.3134 30.3005C51.0306 30.3005 51.4609 30.0626 51.6392 29.6854V28.6992C51.2812 28.8355 50.8989 28.8963 50.5163 28.8776C50.362 28.8889 50.2071 28.8671 50.0618 28.8137C49.9166 28.7603 49.7844 28.6766 49.6741 28.568C49.4511 28.2815 49.3449 27.921 49.377 27.5593V24.6275H50.7315C51.3913 24.6275 51.6699 24.199 51.672 23.8791V23.2436H49.3811L49.3832 21.4947ZM78.8613 23.2887C76.7774 23.2887 75.8676 24.7443 75.8594 26.1774V30.2267H77.4024V26.2943C77.382 25.8669 77.5093 25.4455 77.763 25.1011C77.8785 24.9624 78.0238 24.8516 78.1881 24.7771C78.3524 24.7025 78.5314 24.6661 78.7117 24.6705C78.9099 24.6579 79.1084 24.69 79.2925 24.7645C79.4766 24.8391 79.6416 24.9541 79.7752 25.1011C80.0272 25.3943 80.1543 25.833 80.1522 26.4255V30.2308H81.7013V26.2718C81.7013 24.3425 80.4207 23.2887 78.8511 23.2805M65.9152 23.2579C65.0402 23.2579 64.4931 23.7848 64.1632 24.283L64.0382 24.4696L64.0485 21.5193H62.5076V26.8991C62.5076 29.1851 63.8456 30.321 65.5812 30.3251C67.5667 30.3251 68.8249 28.7279 68.831 26.6777C68.831 24.6685 67.5688 23.2702 65.9152 23.2661M65.7554 28.974C65.5178 28.9887 65.2801 28.9482 65.0607 28.8558C64.8414 28.7633 64.6464 28.6213 64.4911 28.4409C64.1919 28.0575 64.0485 27.4609 64.0505 26.6572C64.0505 25.5521 64.7042 24.65 65.5955 24.65C66.1119 24.65 66.5381 24.7976 66.825 25.1728C67.1119 25.548 67.2573 26.1221 67.2553 26.9709C67.2553 28.1088 66.6406 28.976 65.7615 28.974M72.0297 23.2784C71.085 23.2784 70.4662 23.5347 70.0318 23.8812V24.9986C70.5748 24.7345 71.1719 24.6011 71.7756 24.609C72.2858 24.609 72.7284 24.6849 72.9886 24.8981C73.2489 25.1113 73.3677 25.4578 73.3677 25.954V26.1139H72.7038C70.2183 26.1139 69.3966 27.018 69.3884 28.2051C69.3884 29.4353 70.4498 30.3312 72.0399 30.3374H72.3821C73.8636 30.3374 74.884 29.3615 74.8881 27.9345V26.3435C74.8881 23.914 73.5193 23.2907 72.0194 23.2682M70.9662 28.1354C70.9562 27.9932 70.9864 27.851 71.0534 27.7251C71.1205 27.5993 71.2216 27.4949 71.3453 27.424C71.6178 27.2682 72.0399 27.1944 72.6895 27.1944H73.3657V27.9345C73.3769 28.088 73.3569 28.2422 73.3069 28.3877C73.2569 28.5332 73.1779 28.6671 73.0747 28.7812C72.957 28.8838 72.8202 28.9619 72.6721 29.0112C72.524 29.0605 72.3676 29.0799 72.212 29.0683C71.8913 29.0849 71.5735 28.9995 71.3043 28.8243C71.1968 28.7453 71.1102 28.6413 71.052 28.5213C70.9938 28.4012 70.9658 28.2688 70.9703 28.1354" fill="#697077"/>
<path d="M23.88 19.5837C23.6645 19.5864 23.4517 19.6316 23.2537 19.7166C23.0557 19.8016 22.8764 19.9249 22.7261 20.0793C22.5757 20.2338 22.4573 20.4163 22.3775 20.6166C22.2978 20.8169 22.2582 21.0309 22.2612 21.2465L22.2407 31.9794L32.732 31.9999C32.9473 31.9973 33.16 31.9522 33.3578 31.8673C33.5557 31.7824 33.7349 31.6593 33.8852 31.5051C34.0355 31.3509 34.154 31.1685 34.2339 30.9685C34.3138 30.7685 34.3535 30.5546 34.3508 30.3393L34.3734 19.6042L23.88 19.5837ZM31.5272 28.5474L25.0726 29.7283L25.0849 23.0568L31.5395 21.8759L31.5272 28.5474Z" fill="#697077"/>
</g>
<defs>
<clipPath id="clip0_230_11830">
<rect width="89" height="32" fill="white"/>
</clipPath>
</defs>
</svg>
