<svg width="50" height="50" viewBox="0 0 50 50" fill="none" xmlns="http://www.w3.org/2000/svg">
<rect width="50" height="50" rx="11" fill="#D9D9D9"/>
<path d="M14 43.3333H41.5V39.6667H14.022C13.175 39.6447 12.1667 39.3092 12.1667 37.8333C12.1667 36.3575 13.175 36.022 14.022 36H41.5V10.3333C41.5 8.31116 39.8555 6.66666 37.8333 6.66666H14C11.789 6.66666 8.5 8.13149 8.5 12.1667V37.8333C8.5 41.8685 11.789 43.3333 14 43.3333ZM12.1667 17.6667V12.1667C12.1667 10.6908 13.175 10.3553 14 10.3333H37.8333V32.3333H12.1667V17.6667Z" fill="#21272A"/>
<path d="M17.6667 14H34.1667V17.6667H17.6667V14Z" fill="#21272A"/>
</svg>
