<svg width="162" height="26" viewBox="0 0 162 26" fill="none" xmlns="http://www.w3.org/2000/svg">
<path d="M155.43 5.47803V25.7219H151.273V5.47803H155.43ZM161.659 5.47803V8.74542H145.141V5.47803H161.659Z" fill="#697077"/>
<path d="M142.791 15.4612V18.6034H134.936V15.4612H142.791Z" fill="#697077"/>
<path d="M124.243 8.94007L118.738 25.7219H114.302L121.824 5.47803H124.647L124.243 8.94007ZM128.818 25.7219L123.298 8.94007L122.853 5.47803H125.703L133.267 25.7219H128.818ZM128.567 18.1861V21.4535H117.876V18.1861H128.567Z" fill="#697077"/>
<path d="M108.908 5.47803V25.7219H104.751V5.47803H108.908ZM115.137 5.47803V8.74542H98.6196V5.47803H115.137Z" fill="#697077"/>
<path d="M96.3667 5.47809V25.722H92.2095V5.47809H96.3667ZM92.3763 4.28237L95.1014 0H99.4533L95.6298 4.28237H92.3763Z" fill="#697077"/>
<path d="M85.0355 19.0064H89.1927C89.1093 20.369 88.7339 21.5786 88.0665 22.6353C87.4084 23.692 86.4861 24.5169 85.2996 25.1102C84.1225 25.7034 82.7043 26 81.0451 26C79.7474 26 78.5841 25.7775 77.5553 25.3326C76.5264 24.8784 75.6458 24.2296 74.9136 23.3861C74.1906 22.5426 73.6391 21.523 73.259 20.3273C72.879 19.1315 72.689 17.7921 72.689 16.3091V14.9048C72.689 13.4217 72.8836 12.0823 73.2729 10.8866C73.6715 9.68159 74.2369 8.65735 74.9692 7.81385C75.7107 6.97035 76.5959 6.32151 77.6248 5.86732C78.6537 5.41313 79.803 5.18604 81.0729 5.18604C82.7599 5.18604 84.1827 5.49192 85.3413 6.10368C86.5093 6.71545 87.413 7.55895 88.0526 8.63417C88.7014 9.7094 89.0907 10.9329 89.2205 12.3048H85.0494C85.003 11.4891 84.8408 10.7985 84.5627 10.2331C84.2847 9.65842 83.8629 9.2274 83.2975 8.94006C82.7414 8.64344 81.9998 8.49514 81.0729 8.49514C80.3777 8.49514 79.7706 8.6249 79.2515 8.88444C78.7324 9.14398 78.2968 9.53792 77.9446 10.0663C77.5923 10.5946 77.3282 11.262 77.1521 12.0684C76.9852 12.8656 76.9018 13.8017 76.9018 14.877V16.3091C76.9018 17.3565 76.9806 18.2788 77.1382 19.0759C77.2957 19.8638 77.5367 20.5312 77.8611 21.0781C78.1948 21.6157 78.6212 22.0235 79.1403 22.3016C79.6686 22.5704 80.3036 22.7048 81.0451 22.7048C81.9164 22.7048 82.6348 22.5658 83.2002 22.2877C83.7656 22.0096 84.1966 21.5971 84.4932 21.0503C84.7991 20.5034 84.9799 19.8221 85.0355 19.0064Z" fill="#697077"/>
<path d="M62.6497 8.94007L57.1438 25.7219H52.7085L60.2304 5.47803H63.0529L62.6497 8.94007ZM67.224 25.7219L61.7042 8.94007L61.2593 5.47803H64.1095L71.6732 25.7219H67.224ZM66.9737 18.1861V21.4535H56.2818V18.1861H66.9737Z" fill="#697077"/>
<path d="M46.2579 18.5059H41.0996V15.2524H46.2579C47.0551 15.2524 47.7039 15.1226 48.2044 14.8631C48.705 14.5943 49.0711 14.2235 49.3028 13.7508C49.5346 13.278 49.6504 12.7451 49.6504 12.1518C49.6504 11.5493 49.5346 10.9886 49.3028 10.4695C49.0711 9.95041 48.705 9.5333 48.2044 9.21814C47.7039 8.90299 47.0551 8.74542 46.2579 8.74542H42.5456V25.7219H38.3745V5.47803H46.2579C47.8429 5.47803 49.2009 5.76537 50.3317 6.34006C51.4718 6.90548 52.3431 7.68873 52.9456 8.6898C53.5481 9.69087 53.8494 10.8356 53.8494 12.124C53.8494 13.431 53.5481 14.5618 52.9456 15.5166C52.3431 16.4713 51.4718 17.2082 50.3317 17.7273C49.2009 18.2463 47.8429 18.5059 46.2579 18.5059Z" fill="#697077"/>
<path d="M27.4739 8.94007L21.968 25.7219H17.5327L25.0546 5.47803H27.8771L27.4739 8.94007ZM32.0482 25.7219L26.5284 8.94007L26.0835 5.47803H28.9338L36.4974 25.7219H32.0482ZM31.7979 18.1861V21.4535H21.106V18.1861H31.7979Z" fill="#697077"/>
<path d="M12.3465 19.0064H16.5037C16.4203 20.369 16.0449 21.5786 15.3775 22.6353C14.7194 23.692 13.7971 24.5169 12.6107 25.1102C11.4335 25.7034 10.0153 26 8.35614 26C7.05845 26 5.89518 25.7775 4.8663 25.3326C3.83743 24.8784 2.95686 24.2296 2.2246 23.3861C1.5016 22.5426 0.950087 21.523 0.570052 20.3273C0.190017 19.1315 0 17.7921 0 16.3091V14.9048C0 13.4217 0.194652 12.0823 0.583956 10.8866C0.98253 9.68159 1.54795 8.65735 2.28021 7.81385C3.02174 6.97035 3.90695 6.32151 4.93582 5.86732C5.9647 5.41313 7.11407 5.18604 8.38394 5.18604C10.0709 5.18604 11.4937 5.49192 12.6524 6.10368C13.8203 6.71545 14.724 7.55895 15.3636 8.63417C16.0125 9.7094 16.4018 10.9329 16.5315 12.3048H12.3604C12.3141 11.4891 12.1519 10.7985 11.8738 10.2331C11.5957 9.65842 11.174 9.2274 10.6085 8.94006C10.0524 8.64344 9.31086 8.49514 8.38394 8.49514C7.68876 8.49514 7.08163 8.6249 6.56256 8.88444C6.04348 9.14398 5.60783 9.53792 5.25561 10.0663C4.90338 10.5946 4.63921 11.262 4.46309 12.0684C4.29625 12.8656 4.21283 13.8017 4.21283 14.877V16.3091C4.21283 17.3565 4.29161 18.2788 4.44919 19.0759C4.60677 19.8638 4.84776 20.5312 5.17218 21.0781C5.50587 21.6157 5.93225 22.0235 6.45133 22.3016C6.97967 22.5704 7.6146 22.7048 8.35614 22.7048C9.22744 22.7048 9.94579 22.5658 10.5112 22.2877C11.0766 22.0096 11.5076 21.5971 11.8043 21.0503C12.1101 20.5034 12.2909 19.8221 12.3465 19.0064Z" fill="#697077"/>
</svg>
