<svg width="61" height="32" viewBox="0 0 61 32" fill="none" xmlns="http://www.w3.org/2000/svg">
<path d="M0 12.783C0.0528825 13.4671 0.624421 14.0014 1.32003 14.0014C2.01564 14.0014 2.58718 13.4671 2.64006 12.787V12.783V9.8625C2.60752 9.16223 2.02988 8.60565 1.32003 8.60565C0.610183 8.60565 0.0325431 9.16223 0 9.86048V9.8625V12.783ZM7.30999 12.783C7.37101 13.461 7.94052 13.9872 8.63206 13.9872C9.3236 13.9872 9.8931 13.461 9.95412 12.787V12.781V6.23363C9.92158 5.53336 9.34394 4.97679 8.63409 4.97679C7.92424 4.97679 7.3466 5.53336 7.31406 6.23161V12.781L7.30999 12.783ZM14.5834 15.4222C14.6159 16.1224 15.1936 16.679 15.9034 16.679C16.6133 16.679 17.1909 16.1224 17.2234 15.4242V15.4222V1.25685C17.1909 0.556575 16.6133 0 15.9034 0C15.1936 0 14.6159 0.556574 14.5834 1.25482V1.25685V15.4222ZM21.9198 12.783C21.9524 13.4833 22.53 14.0398 23.2398 14.0398C23.9497 14.0398 24.5273 13.4833 24.5599 12.785V12.783V6.23566C24.5273 5.53539 23.9497 4.97881 23.2398 4.97881C22.53 4.97881 21.9524 5.53539 21.9198 6.23363V6.23566V12.783ZM29.2156 12.783C29.2847 13.4549 29.8481 13.9731 30.5356 13.9731C31.2231 13.9731 31.7885 13.4529 31.8556 12.787V12.781V9.86048C31.8231 9.1602 31.2454 8.60363 30.5356 8.60363C29.8257 8.60363 29.2481 9.1602 29.2156 9.85845V12.783ZM36.5825 12.783C36.6273 13.4752 37.2008 14.0196 37.9046 14.0196C38.6083 14.0196 39.1819 13.4752 39.2266 12.787V12.783V6.23566C39.1941 5.53539 38.6165 4.97881 37.9066 4.97881C37.1968 4.97881 36.6191 5.53539 36.5866 6.23363V6.23566V12.783H36.5825ZM43.7969 15.4222C43.8498 16.1063 44.4213 16.6406 45.1169 16.6406C45.8125 16.6406 46.3841 16.1063 46.437 15.4262V15.4222V1.25685C46.4044 0.556575 45.8268 0 45.1169 0C44.4071 0 43.8294 0.556574 43.7969 1.25482V1.25685V15.4222ZM51.1313 12.783C51.1862 13.4671 51.7578 14.0034 52.4534 14.0034C53.149 14.0034 53.7225 13.4691 53.7754 12.787V12.783V6.23566C53.7307 5.54348 53.1571 4.99905 52.4534 4.99905C51.7496 4.99905 51.1761 5.54348 51.1313 6.23161V6.23566V12.783ZM58.3599 12.783C58.3925 13.4833 58.9701 14.0398 59.68 14.0398C60.3898 14.0398 60.9675 13.4833 61 12.785V12.783V9.8625C60.9675 9.16223 60.3898 8.60565 59.68 8.60565C58.9701 8.60565 58.3925 9.16223 58.3599 9.86048V9.8625V12.783ZM44.283 26.5274C44.3318 29.5531 46.8092 31.9879 49.856 31.9879C50.2832 31.9879 50.6981 31.9393 51.0967 31.8502L51.0601 31.8563C53.5964 31.3665 55.486 29.1726 55.486 26.5415C55.486 24.5804 54.4365 22.8621 52.8663 21.9128L52.8418 21.8987C52.0039 21.3745 50.9849 21.0648 49.8926 21.0648C46.8377 21.0648 44.3522 23.4955 44.2851 26.5213V26.5274H44.283ZM48.1577 24.3678C48.6336 23.9793 49.2479 23.7445 49.917 23.7445C51.4547 23.7445 52.7015 24.9851 52.7015 26.5152C52.7015 27.3794 52.3029 28.1525 51.6805 28.6605L51.6764 28.6646L51.6337 28.699C51.1699 29.0572 50.5781 29.2718 49.9374 29.2718C48.3997 29.2718 47.1509 28.0311 47.1509 26.499C47.1509 25.6429 47.5414 24.8779 48.1536 24.3699L48.1577 24.3658V24.3678ZM17.2458 31.7936H19.9143V21.2551H17.2458V31.7936ZM23.5368 29.2758L23.5266 31.6964L23.7036 31.7268C24.1755 31.8199 24.7551 31.8968 25.3409 31.9393L25.3897 31.9413C25.6745 31.9696 26.006 31.9858 26.3416 31.9858C26.5308 31.9858 26.7199 31.9798 26.9091 31.9696L26.8826 31.9717C27.3972 31.9332 27.8732 31.8381 28.3288 31.6964L28.284 31.7086C28.8434 31.5487 29.3295 31.2815 29.7403 30.9334L29.7342 30.9374C30.1085 30.6177 30.3973 30.2109 30.5742 29.7494L30.5803 29.7292C30.7207 29.375 30.8041 28.9662 30.8041 28.5371C30.8041 28.0918 30.7166 27.6668 30.5559 27.2782L30.5641 27.3005C30.3932 26.8836 30.1349 26.5334 29.8095 26.2561L29.8054 26.2521C29.4942 25.9748 29.122 25.7542 28.7152 25.6146L28.6928 25.6085L26.8582 24.9305C26.6386 24.8354 26.4636 24.6694 26.3599 24.4609L26.3579 24.4549C26.3233 24.38 26.303 24.2909 26.303 24.1978C26.303 24.0885 26.3314 23.9873 26.3802 23.8983L26.3782 23.9023C26.4738 23.7485 26.606 23.6271 26.7647 23.5461L26.7708 23.5441C26.9599 23.451 27.1816 23.3842 27.4135 23.3579H27.4237C27.5864 23.3336 27.7755 23.3195 27.9688 23.3195C28.1905 23.3195 28.4061 23.3377 28.6156 23.3741L28.5932 23.3701C29.1078 23.4267 29.5674 23.5117 30.0149 23.6271L29.9478 23.6129L30.0434 23.6332V21.3988L29.8685 21.3603C29.4922 21.2652 29.0244 21.1782 28.5464 21.1215L28.4874 21.1154C28.2067 21.077 27.8813 21.0547 27.5498 21.0547C27.2406 21.0547 26.9355 21.0749 26.6365 21.1114L26.6731 21.1073C25.8758 21.1822 25.1599 21.4858 24.5782 21.9472L24.5863 21.9412C24.1877 22.2549 23.8805 22.6698 23.6995 23.1454L23.6934 23.1636C23.5673 23.5016 23.4941 23.8922 23.4941 24.3011C23.4941 24.7099 23.5673 25.1005 23.7015 25.4608L23.6934 25.4365C23.8378 25.8149 24.0554 26.1367 24.3321 26.3998H24.3341C24.5741 26.6306 24.8487 26.8289 25.1456 26.9868L25.166 26.9969C25.528 27.1932 25.947 27.3612 26.3884 27.4806L26.4291 27.4907C26.5735 27.5332 26.7179 27.5798 26.8603 27.6263L27.0759 27.7053L27.1369 27.7296C27.3606 27.8105 27.5518 27.9299 27.7125 28.0837C27.8243 28.187 27.9118 28.3145 27.9667 28.4582L27.9688 28.4642C27.985 28.527 27.9952 28.5978 27.9952 28.6727C27.9952 28.7435 27.9871 28.8123 27.9688 28.8771L27.9708 28.871C27.8996 29.0896 27.7491 29.2657 27.5538 29.3689L27.5498 29.3709C27.3464 29.4762 27.1104 29.5531 26.8623 29.5875L26.8501 29.5895C26.6121 29.628 26.3355 29.6502 26.0548 29.6502C25.9531 29.6502 25.8514 29.6482 25.7497 29.6421H25.764C25.225 29.5996 24.7409 29.5329 24.2649 29.4418L24.3483 29.4559C24.1043 29.4033 23.8609 29.3467 23.6182 29.2859L23.5368 29.2758ZM13.5623 31.6094V28.8002L13.5074 28.8245C12.9135 29.118 12.2179 29.3021 11.4836 29.3365H11.4714C11.4023 29.3426 11.3209 29.3446 11.2396 29.3446C10.5541 29.3446 9.92158 29.1159 9.41512 28.7314L9.42326 28.7375C9.0124 28.4197 8.70121 27.9906 8.53646 27.4968L8.53036 27.4786C8.43273 27.1952 8.37781 26.8694 8.37781 26.5294C8.37781 26.2663 8.41036 26.0133 8.47341 25.7704L8.46934 25.7906C8.60562 25.2057 8.92901 24.7099 9.37241 24.3557L9.37648 24.3517C9.76496 24.0258 10.2551 23.8052 10.7921 23.7404L10.8043 23.7384C10.9609 23.7202 11.144 23.7101 11.327 23.7101C12.1223 23.7101 12.8708 23.9064 13.5257 24.2525L13.4993 24.2403L13.5603 24.2727V21.4473L13.4301 21.4129C12.7691 21.1964 12.0084 21.0709 11.2192 21.0709C11.0931 21.0709 10.967 21.0749 10.843 21.081H10.8613C10.0253 21.1033 9.2402 21.2915 8.52832 21.6174L8.56494 21.6012C7.81645 21.9473 7.18796 22.437 6.69167 23.0361L6.68354 23.0442C5.92488 23.9934 5.46521 25.2098 5.46521 26.5334C5.46521 27.7963 5.8842 28.9621 6.58998 29.9012L6.57981 29.887C7.31813 30.8241 8.3473 31.5041 9.53309 31.7915L9.5697 31.7996C10.066 31.9251 10.6375 31.998 11.2253 31.998C11.984 31.998 12.7142 31.8765 13.3996 31.6539L13.3508 31.6681L13.5623 31.6094ZM41.5087 31.6094V28.8002L41.4538 28.8245C40.8599 29.118 40.1643 29.3021 39.43 29.3365H39.4178C39.3487 29.3426 39.2693 29.3446 39.188 29.3446C38.5005 29.3446 37.868 29.1159 37.3615 28.7314L37.3696 28.7375C36.9588 28.4197 36.6476 27.9906 36.4808 27.4968L36.4747 27.4786C36.3791 27.1973 36.3242 26.8714 36.3242 26.5334C36.3242 26.2703 36.3567 26.0133 36.4198 25.7704L36.4157 25.7906C36.554 25.2057 36.8774 24.7099 37.3188 24.3557L37.3229 24.3517C37.7113 24.0258 38.2015 23.8052 38.7385 23.7404L38.7507 23.7384C38.9073 23.7202 39.0904 23.7101 39.2734 23.7101C40.0687 23.7101 40.8172 23.9064 41.4721 24.2525L41.4457 24.2403L41.5067 24.2727V21.4473L41.3765 21.4129C40.7155 21.1964 39.9548 21.0709 39.1656 21.0709C39.0395 21.0709 38.9134 21.0749 38.7893 21.081H38.8076C37.9717 21.1033 37.1866 21.2915 36.4747 21.6174L36.5113 21.6012C35.7628 21.9473 35.1364 22.435 34.6401 23.0361L34.632 23.0462C33.8713 23.9954 33.4136 25.2098 33.4136 26.5334C33.4136 27.7984 33.8326 28.9641 34.5425 29.9032L34.5323 29.8891C35.2706 30.8261 36.2998 31.5041 37.4815 31.7936L37.5181 31.8017C38.0144 31.9271 38.5859 32 39.1738 32C39.9324 32 40.6626 31.8786 41.348 31.6559L41.2992 31.6701L41.5067 31.6114L41.5087 31.6094Z" fill="#697077"/>
</svg>
