<svg width="24" height="24" viewBox="0 0 24 24" fill="none" xmlns="http://www.w3.org/2000/svg">
<g clip-path="url(#clip0_281_11789)">
<path fill-rule="evenodd" clip-rule="evenodd" d="M11.9958 0.600098C9.16481 0.601567 6.42662 1.60426 4.27087 3.42888C2.11513 5.25351 0.682406 7.78108 0.228891 10.5597C-0.224624 13.3382 0.330635 16.1866 1.7954 18.5954C3.26016 21.0043 5.53889 22.8166 8.22415 23.7082C8.81656 23.8181 9.0397 23.451 9.0397 23.1388C9.0397 22.8266 9.02785 21.9214 9.0239 20.9318C5.7064 21.6485 5.00538 19.5319 5.00538 19.5319C4.46431 18.1575 3.68233 17.7962 3.68233 17.7962C2.60019 17.0618 3.7633 17.0756 3.7633 17.0756C4.96194 17.16 5.59188 18.2988 5.59188 18.2988C6.65427 20.1111 8.38212 19.5869 9.06142 19.2806C9.16805 18.5128 9.47809 17.9906 9.81971 17.6941C7.16966 17.3956 4.38532 16.3785 4.38532 11.8351C4.3689 10.6568 4.80865 9.51724 5.6136 8.65229C5.49116 8.35384 5.08239 7.14827 5.7301 5.51074C5.7301 5.51074 6.73128 5.19266 9.01009 6.72613C10.9647 6.19464 13.027 6.19464 14.9816 6.72613C17.2584 5.19266 18.2576 5.51074 18.2576 5.51074C18.9073 7.14435 18.4985 8.34992 18.3761 8.65229C19.1836 9.51738 19.6243 10.6589 19.6063 11.839C19.6063 16.3923 16.8161 17.3956 14.1621 17.6882C14.5886 18.0573 14.9697 18.7779 14.9697 19.8853C14.9697 21.4718 14.9559 22.748 14.9559 23.1388C14.9559 23.4549 15.1711 23.824 15.7754 23.7082C18.461 22.8165 20.7399 21.0039 22.2047 18.5946C23.6694 16.1853 24.2244 13.3365 23.7703 10.5577C23.3163 7.77889 21.8829 5.25129 19.7264 3.42698C17.57 1.60267 14.8311 0.600635 11.9998 0.600098H11.9958Z" fill="white"/>
<path d="M4.58643 17.6255C4.56076 17.6844 4.46597 17.7021 4.38896 17.6608C4.31195 17.6196 4.25469 17.543 4.28233 17.4822C4.30998 17.4213 4.40279 17.4056 4.4798 17.4468C4.55681 17.488 4.61605 17.5666 4.58643 17.6255Z" fill="white"/>
<path d="M5.07027 18.1613C5.02938 18.1818 4.98259 18.1875 4.93792 18.1774C4.89326 18.1674 4.85349 18.1423 4.82541 18.1063C4.7484 18.0238 4.73259 17.9099 4.79183 17.8589C4.85107 17.8078 4.95772 17.8314 5.03473 17.9139C5.11174 17.9963 5.12951 18.1102 5.07027 18.1613Z" fill="white"/>
<path d="M5.54016 18.8425C5.46709 18.8936 5.34268 18.8425 5.27357 18.7404C5.25445 18.7221 5.23926 18.7002 5.22888 18.6759C5.21849 18.6516 5.21313 18.6255 5.21313 18.5991C5.21313 18.5727 5.21849 18.5465 5.22888 18.5223C5.23926 18.498 5.25445 18.476 5.27357 18.4577C5.34663 18.4086 5.47104 18.4577 5.54016 18.5578C5.60927 18.658 5.61125 18.7915 5.54016 18.8425V18.8425Z" fill="white"/>
<path d="M6.17809 19.5022C6.11292 19.5748 5.98062 19.5552 5.87201 19.457C5.7634 19.3589 5.73772 19.2253 5.80289 19.1547C5.86805 19.084 6.00036 19.1036 6.11292 19.1998C6.22548 19.296 6.2472 19.4315 6.17809 19.5022V19.5022Z" fill="white"/>
<path d="M7.07258 19.8872C7.04296 19.9795 6.90868 20.0207 6.7744 19.9815C6.64012 19.9422 6.55126 19.8322 6.57693 19.738C6.6026 19.6438 6.73886 19.6006 6.87511 19.6438C7.01136 19.6869 7.09825 19.791 7.07258 19.8872Z" fill="white"/>
<path d="M8.04819 19.9541C8.04819 20.0503 7.93761 20.1327 7.79543 20.1347C7.65325 20.1367 7.53674 20.0581 7.53674 19.9619C7.53674 19.8657 7.64732 19.7833 7.7895 19.7813C7.93168 19.7793 8.04819 19.8559 8.04819 19.9541Z" fill="white"/>
<path d="M8.9564 19.8025C8.97417 19.8987 8.87544 19.9989 8.73326 20.0224C8.59108 20.046 8.46667 19.9891 8.4489 19.8948C8.43113 19.8006 8.53381 19.6985 8.67204 19.673C8.81027 19.6474 8.93863 19.7063 8.9564 19.8025Z" fill="white"/>
</g>
<defs>
<clipPath id="clip0_281_11789">
<rect width="24" height="24" fill="white"/>
</clipPath>
</defs>
</svg>
