<svg width="107" height="36" viewBox="0 0 107 36" fill="none" xmlns="http://www.w3.org/2000/svg">
<path d="M26.0267 12.6176H13.5761V16.3122H22.408C21.9693 21.4916 17.6589 23.7016 13.593 23.7016C10.9755 23.7016 8.46519 22.6618 6.61433 20.8109C4.76347 18.9601 3.72366 16.4498 3.72366 13.8323C3.72366 11.2147 4.76347 8.70443 6.61433 6.85357C8.46519 5.0027 10.9755 3.9629 13.593 3.9629C16.074 3.95904 18.4598 4.9176 20.2485 6.63691L22.8382 3.95446C20.3368 1.53615 16.9791 0.207605 13.5002 0.259782C11.7179 0.272521 9.95547 0.636198 8.31365 1.33005C6.67184 2.0239 5.18277 3.03433 3.93145 4.30366C2.68014 5.57299 1.69109 7.07636 1.02078 8.72792C0.35047 10.3795 0.0120217 12.1469 0.0247608 13.9293C0.0374998 15.7116 0.401177 17.474 1.09503 19.1158C1.78888 20.7577 2.79931 22.2467 4.06864 23.498C5.33797 24.7493 6.84133 25.7384 8.4929 26.4087C10.1445 27.079 11.9119 27.4175 13.6942 27.4047C20.9571 27.4047 26.2798 22.4279 26.2798 15.0638C26.2948 14.2425 26.2184 13.422 26.052 12.6176H26.0267Z" fill="#697077"/>
<path d="M36.2255 9.94346C34.5033 9.95013 32.8216 10.4665 31.3924 11.4275C29.9633 12.3884 28.8506 13.751 28.1946 15.3433C27.5386 16.9357 27.3687 18.6867 27.7064 20.3754C28.044 22.0642 28.874 23.6152 30.0918 24.833C31.3096 26.0508 32.8606 26.8808 34.5494 27.2184C36.2381 27.5561 37.9891 27.3862 39.5815 26.7302C41.1738 26.0742 42.5364 24.9615 43.4973 23.5324C44.4583 22.1032 44.9747 20.4215 44.9813 18.6993C44.9996 17.5445 44.7855 16.3977 44.352 15.3272C43.9184 14.2566 43.2741 13.2841 42.4574 12.4674C41.6407 11.6507 40.6682 11.0064 39.5976 10.5728C38.5271 10.1393 37.3803 9.92523 36.2255 9.94346ZM36.2761 13.3682C37.3376 13.3057 38.3935 13.5635 39.3067 14.1084C40.2199 14.6532 40.9483 15.4599 41.3974 16.4237C41.8466 17.3876 41.9958 18.4642 41.8256 19.5139C41.6555 20.5635 41.1738 21.5379 40.4432 22.3105C39.7125 23.0831 38.7666 23.6184 37.728 23.8468C36.6895 24.0753 35.6062 23.9864 34.6188 23.5917C33.6314 23.197 32.7853 22.5147 32.1904 21.6333C31.5955 20.7519 31.2791 19.7121 31.2823 18.6487C31.2469 17.9701 31.3497 17.2913 31.5844 16.6536C31.8192 16.0158 32.181 15.4324 32.6479 14.9386C33.1149 14.4449 33.6772 14.0511 34.3009 13.7811C34.9245 13.5112 35.5965 13.3707 36.2761 13.3682Z" fill="#697077"/>
<path d="M55.3057 9.94333C53.5831 9.94834 51.9006 10.4633 50.4703 11.4232C49.0401 12.3832 47.926 13.7452 47.2688 15.3374C46.6115 16.9296 46.4404 18.6808 46.7771 20.3702C47.1138 22.0595 47.9431 23.6113 49.1606 24.83C50.378 26.0486 51.9291 26.8794 53.6181 27.2177C55.3071 27.556 57.0584 27.3866 58.6513 26.7309C60.2442 26.0752 61.6072 24.9625 62.5686 23.5331C63.5299 22.1038 64.0465 20.4218 64.0531 18.6992C64.0713 17.5451 63.8576 16.399 63.4245 15.329C62.9915 14.2591 62.3479 13.2869 61.5321 12.4703C60.7163 11.6537 59.7448 11.0093 58.6752 10.5752C57.6057 10.1411 56.4598 9.92624 55.3057 9.94333ZM55.3563 13.3681C56.4178 13.3055 57.4737 13.5634 58.3869 14.1082C59.3001 14.6531 60.0285 15.4597 60.4777 16.4236C60.9268 17.3875 61.076 18.4641 60.9058 19.5137C60.7357 20.5634 60.254 21.5378 59.5234 22.3104C58.7927 23.083 57.8468 23.6182 56.8082 23.8467C55.7697 24.0751 54.6864 23.9862 53.699 23.5915C52.7116 23.1969 51.8656 22.5146 51.2706 21.6332C50.6757 20.7518 50.3593 19.712 50.3626 18.6486C50.3271 17.97 50.4299 17.2912 50.6647 16.6534C50.8994 16.0157 51.2612 15.4323 51.7281 14.9385C52.1951 14.4447 52.7574 14.051 53.3811 13.781C54.0047 13.5111 54.6767 13.3706 55.3563 13.3681Z" fill="#697077"/>
<path d="M74.0072 9.95193C69.3171 9.95193 65.6309 14.0599 65.6309 18.6656C65.5963 20.9163 66.4451 23.0909 67.9953 24.723C69.5454 26.3552 71.6734 27.3148 73.9228 27.3962C74.8306 27.4457 75.7371 27.2796 76.5684 26.9116C77.3997 26.5437 78.132 25.9842 78.7057 25.279V26.966C78.7057 29.9774 76.8752 31.7742 74.1169 31.7742C73.1549 31.7662 72.2172 31.4714 71.4237 30.9274C70.6303 30.3834 70.0172 29.615 69.663 28.7206L66.2889 30.1209C66.9415 31.6572 68.0352 32.9655 69.4317 33.8799C70.8282 34.7944 72.4646 35.274 74.1337 35.258C78.7985 35.258 82.3498 32.3225 82.3498 26.1647V10.4749H78.7141V11.9511C78.1179 11.301 77.3893 10.7862 76.5774 10.4413C75.7654 10.0965 74.889 9.9296 74.0072 9.95193ZM74.3446 13.3682C76.6475 13.3682 79.0009 15.3337 79.0009 18.6825C79.0009 22.0313 76.6475 23.9715 74.294 23.9715C73.6285 23.9546 72.9732 23.8038 72.3671 23.5283C71.7611 23.2527 71.2167 22.858 70.7665 22.3676C70.3162 21.8772 69.9693 21.3012 69.7464 20.6739C69.5235 20.0466 69.4291 19.3808 69.469 18.7163C69.469 15.3421 71.8815 13.3682 74.3446 13.3682Z" fill="#697077"/>
<path d="M98.6384 9.92651C94.2183 9.92651 90.4983 13.4441 90.4983 18.6402C90.4546 19.7854 90.6447 20.9274 91.057 21.9967C91.4693 23.0659 92.0952 24.0399 92.8964 24.8593C93.6976 25.6787 94.6574 26.3262 95.7171 26.7623C96.7769 27.1985 97.9144 27.4141 99.0602 27.3961C100.497 27.399 101.913 27.0517 103.186 26.3845C104.459 25.7172 105.55 24.75 106.365 23.5665L103.345 21.5589C102.908 22.3012 102.282 22.9146 101.531 23.3369C100.78 23.7591 99.9302 23.9751 99.0686 23.9629C98.1737 23.9999 97.2881 23.7682 96.526 23.2977C95.7638 22.8272 95.1599 22.1393 94.7919 21.3227L106.492 16.4723L105.884 15.0468C105.327 13.5659 104.337 12.2867 103.043 11.3752C101.75 10.4637 100.212 9.96191 98.63 9.93495L98.6384 9.92651ZM98.7903 13.3007C99.4503 13.2722 100.105 13.4324 100.677 13.7626C101.249 14.0928 101.715 14.5792 102.021 15.1649L94.2099 18.4293C94.1711 17.7912 94.2591 17.1518 94.4688 16.5478C94.6785 15.9439 95.0057 15.3875 95.4315 14.9107C95.8574 14.4339 96.3734 14.0461 96.9499 13.7698C97.5264 13.4934 98.1519 13.334 98.7903 13.3007Z" fill="#697077"/>
<path d="M84.9224 26.8817H88.7689V1.16235H84.9224V26.8817Z" fill="#697077"/>
</svg>
