<svg width="165" height="40" viewBox="0 0 165 40" fill="none" xmlns="http://www.w3.org/2000/svg">
<path d="M6 22.5H21V20.5H6.012C5.55 20.488 5 20.305 5 19.5C5 18.695 5.55 18.512 6.012 18.5H21V4.5C21 3.397 20.103 2.5 19 2.5H6C4.794 2.5 3 3.299 3 5.5V19.5C3 21.701 4.794 22.5 6 22.5ZM5 8.5V5.5C5 4.695 5.55 4.512 6 4.5H19V16.5H5V8.5Z" fill="#21272A"/>
<path d="M8 6.5H17V8.5H8V6.5Z" fill="#21272A"/>
<path d="M39.4141 16.3398H42.918C42.8477 17.4883 42.5312 18.5078 41.9688 19.3984C41.4141 20.2891 40.6367 20.9844 39.6367 21.4844C38.6445 21.9844 37.4492 22.2344 36.0508 22.2344C34.957 22.2344 33.9766 22.0469 33.1094 21.6719C32.2422 21.2891 31.5 20.7422 30.8828 20.0312C30.2734 19.3203 29.8086 18.4609 29.4883 17.4531C29.168 16.4453 29.0078 15.3164 29.0078 14.0664V12.8828C29.0078 11.6328 29.1719 10.5039 29.5 9.49609C29.8359 8.48047 30.3125 7.61719 30.9297 6.90625C31.5547 6.19531 32.3008 5.64844 33.168 5.26562C34.0352 4.88281 35.0039 4.69141 36.0742 4.69141C37.4961 4.69141 38.6953 4.94922 39.6719 5.46484C40.6562 5.98047 41.418 6.69141 41.957 7.59766C42.5039 8.50391 42.832 9.53516 42.9414 10.6914H39.4258C39.3867 10.0039 39.25 9.42188 39.0156 8.94531C38.7812 8.46094 38.4258 8.09766 37.9492 7.85547C37.4805 7.60547 36.8555 7.48047 36.0742 7.48047C35.4883 7.48047 34.9766 7.58984 34.5391 7.80859C34.1016 8.02734 33.7344 8.35938 33.4375 8.80469C33.1406 9.25 32.918 9.8125 32.7695 10.4922C32.6289 11.1641 32.5586 11.9531 32.5586 12.8594V14.0664C32.5586 14.9492 32.625 15.7266 32.7578 16.3984C32.8906 17.0625 33.0938 17.625 33.3672 18.0859C33.6484 18.5391 34.0078 18.8828 34.4453 19.1172C34.8906 19.3438 35.4258 19.457 36.0508 19.457C36.7852 19.457 37.3906 19.3398 37.8672 19.1055C38.3438 18.8711 38.707 18.5234 38.957 18.0625C39.2148 17.6016 39.3672 17.0273 39.4141 16.3398ZM44.4766 15.7891V15.543C44.4766 14.6133 44.6094 13.7578 44.875 12.9766C45.1406 12.1875 45.5273 11.5039 46.0352 10.9258C46.543 10.3477 47.168 9.89844 47.9102 9.57812C48.6523 9.25 49.5039 9.08594 50.4648 9.08594C51.4258 9.08594 52.2812 9.25 53.0312 9.57812C53.7812 9.89844 54.4102 10.3477 54.918 10.9258C55.4336 11.5039 55.8242 12.1875 56.0898 12.9766C56.3555 13.7578 56.4883 14.6133 56.4883 15.543V15.7891C56.4883 16.7109 56.3555 17.5664 56.0898 18.3555C55.8242 19.1367 55.4336 19.8203 54.918 20.4062C54.4102 20.9844 53.7852 21.4336 53.043 21.7539C52.3008 22.0742 51.4492 22.2344 50.4883 22.2344C49.5273 22.2344 48.6719 22.0742 47.9219 21.7539C47.1797 21.4336 46.5508 20.9844 46.0352 20.4062C45.5273 19.8203 45.1406 19.1367 44.875 18.3555C44.6094 17.5664 44.4766 16.7109 44.4766 15.7891ZM47.8516 15.543V15.7891C47.8516 16.3203 47.8984 16.8164 47.9922 17.2773C48.0859 17.7383 48.2344 18.1445 48.4375 18.4961C48.6484 18.8398 48.9219 19.1094 49.2578 19.3047C49.5938 19.5 50.0039 19.5977 50.4883 19.5977C50.957 19.5977 51.3594 19.5 51.6953 19.3047C52.0312 19.1094 52.3008 18.8398 52.5039 18.4961C52.707 18.1445 52.8555 17.7383 52.9492 17.2773C53.0508 16.8164 53.1016 16.3203 53.1016 15.7891V15.543C53.1016 15.0273 53.0508 14.543 52.9492 14.0898C52.8555 13.6289 52.7031 13.2227 52.4922 12.8711C52.2891 12.5117 52.0195 12.2305 51.6836 12.0273C51.3477 11.8242 50.9414 11.7227 50.4648 11.7227C49.9883 11.7227 49.582 11.8242 49.2461 12.0273C48.918 12.2305 48.6484 12.5117 48.4375 12.8711C48.2344 13.2227 48.0859 13.6289 47.9922 14.0898C47.8984 14.543 47.8516 15.0273 47.8516 15.543ZM61.8672 12.0273V22H58.4922V9.32031H61.6562L61.8672 12.0273ZM61.375 15.2148H60.4609C60.4609 14.2773 60.582 13.4336 60.8242 12.6836C61.0664 11.9258 61.4062 11.2812 61.8438 10.75C62.2812 10.2109 62.8008 9.80078 63.4023 9.51953C64.0117 9.23047 64.6914 9.08594 65.4414 9.08594C66.0352 9.08594 66.5781 9.17188 67.0703 9.34375C67.5625 9.51562 67.9844 9.78906 68.3359 10.1641C68.6953 10.5391 68.9688 11.0352 69.1562 11.6523C69.3516 12.2695 69.4492 13.0234 69.4492 13.9141V22H66.0508V13.9023C66.0508 13.3398 65.9727 12.9023 65.8164 12.5898C65.6602 12.2773 65.4297 12.0586 65.125 11.9336C64.8281 11.8008 64.4609 11.7344 64.0234 11.7344C63.5703 11.7344 63.1758 11.8242 62.8398 12.0039C62.5117 12.1836 62.2383 12.4336 62.0195 12.7539C61.8086 13.0664 61.6484 13.4336 61.5391 13.8555C61.4297 14.2773 61.375 14.7305 61.375 15.2148ZM77.8516 22.2344C76.8672 22.2344 75.9844 22.0781 75.2031 21.7656C74.4219 21.4453 73.7578 21.0039 73.2109 20.4414C72.6719 19.8789 72.2578 19.2266 71.9688 18.4844C71.6797 17.7344 71.5352 16.9375 71.5352 16.0938V15.625C71.5352 14.6641 71.6719 13.7852 71.9453 12.9883C72.2188 12.1914 72.6094 11.5 73.1172 10.9141C73.6328 10.3281 74.2578 9.87891 74.9922 9.56641C75.7266 9.24609 76.5547 9.08594 77.4766 9.08594C78.375 9.08594 79.1719 9.23438 79.8672 9.53125C80.5625 9.82812 81.1445 10.25 81.6133 10.7969C82.0898 11.3438 82.4492 12 82.6914 12.7656C82.9336 13.5234 83.0547 14.3672 83.0547 15.2969V16.7031H72.9766V14.4531H79.7383V14.1953C79.7383 13.7266 79.6523 13.3086 79.4805 12.9414C79.3164 12.5664 79.0664 12.2695 78.7305 12.0508C78.3945 11.832 77.9648 11.7227 77.4414 11.7227C76.9961 11.7227 76.6133 11.8203 76.293 12.0156C75.9727 12.2109 75.7109 12.4844 75.5078 12.8359C75.3125 13.1875 75.1641 13.6016 75.0625 14.0781C74.9688 14.5469 74.9219 15.0625 74.9219 15.625V16.0938C74.9219 16.6016 74.9922 17.0703 75.1328 17.5C75.2812 17.9297 75.4883 18.3008 75.7539 18.6133C76.0273 18.9258 76.3555 19.168 76.7383 19.3398C77.1289 19.5117 77.5703 19.5977 78.0625 19.5977C78.6719 19.5977 79.2383 19.4805 79.7617 19.2461C80.293 19.0039 80.75 18.6406 81.1328 18.1562L82.7734 19.9375C82.5078 20.3203 82.1445 20.6875 81.6836 21.0391C81.2305 21.3906 80.6836 21.6797 80.043 21.9062C79.4023 22.125 78.6719 22.2344 77.8516 22.2344ZM90.2148 19.5977C90.6289 19.5977 90.9961 19.5195 91.3164 19.3633C91.6367 19.1992 91.8867 18.9727 92.0664 18.6836C92.2539 18.3867 92.3516 18.0391 92.3594 17.6406H95.5352C95.5273 18.5312 95.2891 19.3242 94.8203 20.0195C94.3516 20.707 93.7227 21.25 92.9336 21.6484C92.1445 22.0391 91.2617 22.2344 90.2852 22.2344C89.3008 22.2344 88.4414 22.0703 87.707 21.7422C86.9805 21.4141 86.375 20.9609 85.8906 20.3828C85.4062 19.7969 85.043 19.1172 84.8008 18.3438C84.5586 17.5625 84.4375 16.7266 84.4375 15.8359V15.4961C84.4375 14.5977 84.5586 13.7617 84.8008 12.9883C85.043 12.207 85.4062 11.5273 85.8906 10.9492C86.375 10.3633 86.9805 9.90625 87.707 9.57812C88.4336 9.25 89.2852 9.08594 90.2617 9.08594C91.3008 9.08594 92.2109 9.28516 92.9922 9.68359C93.7812 10.082 94.3984 10.6523 94.8438 11.3945C95.2969 12.1289 95.5273 13 95.5352 14.0078H92.3594C92.3516 13.5859 92.2617 13.2031 92.0898 12.8594C91.9258 12.5156 91.6836 12.2422 91.3633 12.0391C91.0508 11.8281 90.6641 11.7227 90.2031 11.7227C89.7109 11.7227 89.3086 11.8281 88.9961 12.0391C88.6836 12.2422 88.4414 12.5234 88.2695 12.8828C88.0977 13.2344 87.9766 13.6367 87.9062 14.0898C87.8438 14.5352 87.8125 15.0039 87.8125 15.4961V15.8359C87.8125 16.3281 87.8438 16.8008 87.9062 17.2539C87.9688 17.707 88.0859 18.1094 88.2578 18.4609C88.4375 18.8125 88.6836 19.0898 88.9961 19.293C89.3086 19.4961 89.7148 19.5977 90.2148 19.5977ZM103.703 9.32031V11.7109H96.3203V9.32031H103.703ZM98.1484 6.19141H101.523V18.1797C101.523 18.5469 101.57 18.8281 101.664 19.0234C101.766 19.2188 101.914 19.3555 102.109 19.4336C102.305 19.5039 102.551 19.5391 102.848 19.5391C103.059 19.5391 103.246 19.5312 103.41 19.5156C103.582 19.4922 103.727 19.4688 103.844 19.4453L103.855 21.9297C103.566 22.0234 103.254 22.0977 102.918 22.1523C102.582 22.207 102.211 22.2344 101.805 22.2344C101.062 22.2344 100.414 22.1133 99.8594 21.8711C99.3125 21.6211 98.8906 21.2227 98.5938 20.6758C98.2969 20.1289 98.1484 19.4102 98.1484 18.5195V6.19141ZM112.469 19.1406V13.4922C112.469 13.0859 112.402 12.7383 112.27 12.4492C112.137 12.1523 111.93 11.9219 111.648 11.7578C111.375 11.5938 111.02 11.5117 110.582 11.5117C110.207 11.5117 109.883 11.5781 109.609 11.7109C109.336 11.8359 109.125 12.0195 108.977 12.2617C108.828 12.4961 108.754 12.7734 108.754 13.0938H105.379C105.379 12.5547 105.504 12.043 105.754 11.5586C106.004 11.0742 106.367 10.6484 106.844 10.2812C107.32 9.90625 107.887 9.61328 108.543 9.40234C109.207 9.19141 109.949 9.08594 110.77 9.08594C111.754 9.08594 112.629 9.25 113.395 9.57812C114.16 9.90625 114.762 10.3984 115.199 11.0547C115.645 11.7109 115.867 12.5312 115.867 13.5156V18.9414C115.867 19.6367 115.91 20.207 115.996 20.6523C116.082 21.0898 116.207 21.4727 116.371 21.8008V22H112.961C112.797 21.6562 112.672 21.2266 112.586 20.7109C112.508 20.1875 112.469 19.6641 112.469 19.1406ZM112.914 14.2773L112.938 16.1875H111.051C110.605 16.1875 110.219 16.2383 109.891 16.3398C109.562 16.4414 109.293 16.5859 109.082 16.7734C108.871 16.9531 108.715 17.1641 108.613 17.4062C108.52 17.6484 108.473 17.9141 108.473 18.2031C108.473 18.4922 108.539 18.7539 108.672 18.9883C108.805 19.2148 108.996 19.3945 109.246 19.5273C109.496 19.6523 109.789 19.7148 110.125 19.7148C110.633 19.7148 111.074 19.6133 111.449 19.4102C111.824 19.207 112.113 18.957 112.316 18.6602C112.527 18.3633 112.637 18.082 112.645 17.8164L113.535 19.2461C113.41 19.5664 113.238 19.8984 113.02 20.2422C112.809 20.5859 112.539 20.9102 112.211 21.2148C111.883 21.5117 111.488 21.7578 111.027 21.9531C110.566 22.1406 110.02 22.2344 109.387 22.2344C108.582 22.2344 107.852 22.0742 107.195 21.7539C106.547 21.4258 106.031 20.9766 105.648 20.4062C105.273 19.8281 105.086 19.1719 105.086 18.4375C105.086 17.7734 105.211 17.1836 105.461 16.668C105.711 16.1523 106.078 15.7188 106.562 15.3672C107.055 15.0078 107.668 14.7383 108.402 14.5586C109.137 14.3711 109.988 14.2773 110.957 14.2773H112.914ZM121.773 12.0273V22H118.398V9.32031H121.562L121.773 12.0273ZM121.281 15.2148H120.367C120.367 14.2773 120.488 13.4336 120.73 12.6836C120.973 11.9258 121.312 11.2812 121.75 10.75C122.188 10.2109 122.707 9.80078 123.309 9.51953C123.918 9.23047 124.598 9.08594 125.348 9.08594C125.941 9.08594 126.484 9.17188 126.977 9.34375C127.469 9.51562 127.891 9.78906 128.242 10.1641C128.602 10.5391 128.875 11.0352 129.062 11.6523C129.258 12.2695 129.355 13.0234 129.355 13.9141V22H125.957V13.9023C125.957 13.3398 125.879 12.9023 125.723 12.5898C125.566 12.2773 125.336 12.0586 125.031 11.9336C124.734 11.8008 124.367 11.7344 123.93 11.7344C123.477 11.7344 123.082 11.8242 122.746 12.0039C122.418 12.1836 122.145 12.4336 121.926 12.7539C121.715 13.0664 121.555 13.4336 121.445 13.8555C121.336 14.2773 121.281 14.7305 121.281 15.2148ZM139.41 19.2344V4H142.809V22H139.75L139.41 19.2344ZM131.395 15.8125V15.5664C131.395 14.5977 131.504 13.7188 131.723 12.9297C131.941 12.1328 132.262 11.4492 132.684 10.8789C133.105 10.3086 133.625 9.86719 134.242 9.55469C134.859 9.24219 135.562 9.08594 136.352 9.08594C137.094 9.08594 137.742 9.24219 138.297 9.55469C138.859 9.86719 139.336 10.3125 139.727 10.8906C140.125 11.4609 140.445 12.1367 140.688 12.918C140.93 13.6914 141.105 14.5391 141.215 15.4609V16C141.105 16.8828 140.93 17.7031 140.688 18.4609C140.445 19.2188 140.125 19.8828 139.727 20.4531C139.336 21.0156 138.859 21.4531 138.297 21.7656C137.734 22.0781 137.078 22.2344 136.328 22.2344C135.539 22.2344 134.836 22.0742 134.219 21.7539C133.609 21.4336 133.094 20.9844 132.672 20.4062C132.258 19.8281 131.941 19.1484 131.723 18.3672C131.504 17.5859 131.395 16.7344 131.395 15.8125ZM134.77 15.5664V15.8125C134.77 16.3359 134.809 16.8242 134.887 17.2773C134.973 17.7305 135.109 18.1328 135.297 18.4844C135.492 18.8281 135.742 19.0977 136.047 19.293C136.359 19.4805 136.738 19.5742 137.184 19.5742C137.762 19.5742 138.238 19.4453 138.613 19.1875C138.988 18.9219 139.273 18.5586 139.469 18.0977C139.672 17.6367 139.789 17.1055 139.82 16.5039V14.9688C139.797 14.4766 139.727 14.0352 139.609 13.6445C139.5 13.2461 139.336 12.9062 139.117 12.625C138.906 12.3438 138.641 12.125 138.32 11.9688C138.008 11.8125 137.637 11.7344 137.207 11.7344C136.77 11.7344 136.395 11.8359 136.082 12.0391C135.77 12.2344 135.516 12.5039 135.32 12.8477C135.133 13.1914 134.992 13.5977 134.898 14.0664C134.812 14.5273 134.77 15.0273 134.77 15.5664ZM144.906 15.7891V15.543C144.906 14.6133 145.039 13.7578 145.305 12.9766C145.57 12.1875 145.957 11.5039 146.465 10.9258C146.973 10.3477 147.598 9.89844 148.34 9.57812C149.082 9.25 149.934 9.08594 150.895 9.08594C151.855 9.08594 152.711 9.25 153.461 9.57812C154.211 9.89844 154.84 10.3477 155.348 10.9258C155.863 11.5039 156.254 12.1875 156.52 12.9766C156.785 13.7578 156.918 14.6133 156.918 15.543V15.7891C156.918 16.7109 156.785 17.5664 156.52 18.3555C156.254 19.1367 155.863 19.8203 155.348 20.4062C154.84 20.9844 154.215 21.4336 153.473 21.7539C152.73 22.0742 151.879 22.2344 150.918 22.2344C149.957 22.2344 149.102 22.0742 148.352 21.7539C147.609 21.4336 146.98 20.9844 146.465 20.4062C145.957 19.8203 145.57 19.1367 145.305 18.3555C145.039 17.5664 144.906 16.7109 144.906 15.7891ZM148.281 15.543V15.7891C148.281 16.3203 148.328 16.8164 148.422 17.2773C148.516 17.7383 148.664 18.1445 148.867 18.4961C149.078 18.8398 149.352 19.1094 149.688 19.3047C150.023 19.5 150.434 19.5977 150.918 19.5977C151.387 19.5977 151.789 19.5 152.125 19.3047C152.461 19.1094 152.73 18.8398 152.934 18.4961C153.137 18.1445 153.285 17.7383 153.379 17.2773C153.48 16.8164 153.531 16.3203 153.531 15.7891V15.543C153.531 15.0273 153.48 14.543 153.379 14.0898C153.285 13.6289 153.133 13.2227 152.922 12.8711C152.719 12.5117 152.449 12.2305 152.113 12.0273C151.777 11.8242 151.371 11.7227 150.895 11.7227C150.418 11.7227 150.012 11.8242 149.676 12.0273C149.348 12.2305 149.078 12.5117 148.867 12.8711C148.664 13.2227 148.516 13.6289 148.422 14.0898C148.328 14.543 148.281 15.0273 148.281 15.543ZM162.801 4.9375L162.414 16.7852H159.602L159.203 4.9375H162.801ZM159.109 20.4531C159.109 19.9531 159.281 19.5391 159.625 19.2109C159.977 18.875 160.438 18.707 161.008 18.707C161.586 18.707 162.047 18.875 162.391 19.2109C162.734 19.5391 162.906 19.9531 162.906 20.4531C162.906 20.9375 162.734 21.3477 162.391 21.6836C162.047 22.0195 161.586 22.1875 161.008 22.1875C160.438 22.1875 159.977 22.0195 159.625 21.6836C159.281 21.3477 159.109 20.9375 159.109 20.4531Z" fill="#21272A"/>
<path d="M109.82 27H110.91V34.7695L110.816 36H109.82V27ZM115.193 32.7773V32.9004C115.193 33.3613 115.139 33.7891 115.029 34.1836C114.92 34.5742 114.76 34.9141 114.549 35.2031C114.338 35.4922 114.08 35.7168 113.775 35.877C113.471 36.0371 113.121 36.1172 112.727 36.1172C112.324 36.1172 111.971 36.0488 111.666 35.9121C111.365 35.7715 111.111 35.5703 110.904 35.3086C110.697 35.0469 110.531 34.7305 110.406 34.3594C110.285 33.9883 110.201 33.5703 110.154 33.1055V32.5664C110.201 32.0977 110.285 31.6777 110.406 31.3066C110.531 30.9355 110.697 30.6191 110.904 30.3574C111.111 30.0918 111.365 29.8906 111.666 29.7539C111.967 29.6133 112.316 29.543 112.715 29.543C113.113 29.543 113.467 29.6211 113.775 29.7773C114.084 29.9297 114.342 30.1484 114.549 30.4336C114.76 30.7188 114.92 31.0605 115.029 31.459C115.139 31.8535 115.193 32.293 115.193 32.7773ZM114.104 32.9004V32.7773C114.104 32.4609 114.074 32.1641 114.016 31.8867C113.957 31.6055 113.863 31.3594 113.734 31.1484C113.605 30.9336 113.436 30.7656 113.225 30.6445C113.014 30.5195 112.754 30.457 112.445 30.457C112.172 30.457 111.934 30.5039 111.73 30.5977C111.531 30.6914 111.361 30.8184 111.221 30.9785C111.08 31.1348 110.965 31.3145 110.875 31.5176C110.789 31.7168 110.725 31.9238 110.682 32.1387V33.5508C110.744 33.8242 110.846 34.0879 110.986 34.3418C111.131 34.5918 111.322 34.7969 111.561 34.957C111.803 35.1172 112.102 35.1973 112.457 35.1973C112.75 35.1973 113 35.1387 113.207 35.0215C113.418 34.9004 113.588 34.7344 113.717 34.5234C113.85 34.3125 113.947 34.0684 114.01 33.791C114.072 33.5137 114.104 33.2168 114.104 32.9004ZM118.275 35.3438L120.039 29.6602H121.199L118.656 36.9785C118.598 37.1348 118.52 37.3027 118.422 37.4824C118.328 37.666 118.207 37.8398 118.059 38.0039C117.91 38.168 117.73 38.3008 117.52 38.4023C117.312 38.5078 117.064 38.5605 116.775 38.5605C116.689 38.5605 116.58 38.5488 116.447 38.5254C116.314 38.502 116.221 38.4824 116.166 38.4668L116.16 37.5879C116.191 37.5918 116.24 37.5957 116.307 37.5996C116.377 37.6074 116.426 37.6113 116.453 37.6113C116.699 37.6113 116.908 37.5781 117.08 37.5117C117.252 37.4492 117.396 37.3418 117.514 37.1895C117.635 37.041 117.738 36.8359 117.824 36.5742L118.275 35.3438ZM116.98 29.6602L118.627 34.582L118.908 35.7246L118.129 36.123L115.797 29.6602H116.98ZM131.623 31.752V34.875C131.518 35.0312 131.35 35.207 131.119 35.4023C130.889 35.5938 130.57 35.7617 130.164 35.9062C129.762 36.0469 129.242 36.1172 128.605 36.1172C128.086 36.1172 127.607 36.0273 127.17 35.8477C126.736 35.6641 126.359 35.3984 126.039 35.0508C125.723 34.6992 125.477 34.2734 125.301 33.7734C125.129 33.2695 125.043 32.6992 125.043 32.0625V31.4004C125.043 30.7637 125.117 30.1953 125.266 29.6953C125.418 29.1953 125.641 28.7715 125.934 28.4238C126.227 28.0723 126.586 27.8066 127.012 27.627C127.438 27.4434 127.926 27.3516 128.477 27.3516C129.129 27.3516 129.674 27.4648 130.111 27.6914C130.553 27.9141 130.896 28.2227 131.143 28.6172C131.393 29.0117 131.553 29.4609 131.623 29.9648H130.492C130.441 29.6562 130.34 29.375 130.188 29.1211C130.039 28.8672 129.826 28.6641 129.549 28.5117C129.271 28.3555 128.914 28.2773 128.477 28.2773C128.082 28.2773 127.74 28.3496 127.451 28.4941C127.162 28.6387 126.924 28.8457 126.736 29.1152C126.549 29.3848 126.408 29.7109 126.314 30.0938C126.225 30.4766 126.18 30.9082 126.18 31.3887V32.0625C126.18 32.5547 126.236 32.9941 126.35 33.3809C126.467 33.7676 126.633 34.0977 126.848 34.3711C127.062 34.6406 127.318 34.8457 127.615 34.9863C127.916 35.127 128.248 35.1973 128.611 35.1973C129.014 35.1973 129.34 35.1641 129.59 35.0977C129.84 35.0273 130.035 34.9453 130.176 34.8516C130.316 34.7539 130.424 34.6621 130.498 34.5762V32.666H128.523V31.752H131.623ZM136.645 32.6543H134.365V31.7344H136.645C137.086 31.7344 137.443 31.6641 137.717 31.5234C137.99 31.3828 138.189 31.1875 138.314 30.9375C138.443 30.6875 138.508 30.4023 138.508 30.082C138.508 29.7891 138.443 29.5137 138.314 29.2559C138.189 28.998 137.99 28.791 137.717 28.6348C137.443 28.4746 137.086 28.3945 136.645 28.3945H134.629V36H133.498V27.4688H136.645C137.289 27.4688 137.834 27.5801 138.279 27.8027C138.725 28.0254 139.062 28.334 139.293 28.7285C139.523 29.1191 139.639 29.5664 139.639 30.0703C139.639 30.6172 139.523 31.084 139.293 31.4707C139.062 31.8574 138.725 32.1523 138.279 32.3555C137.834 32.5547 137.289 32.6543 136.645 32.6543ZM143.16 31.9277V32.8184H140.301V31.9277H143.16ZM147.537 27.4688V36H146.424V27.4688H147.537ZM150.279 27.4688V28.3945H143.688V27.4688H150.279ZM154.586 32.0098H152.424L152.412 31.1016H154.375C154.699 31.1016 154.982 31.0469 155.225 30.9375C155.467 30.8281 155.654 30.6719 155.787 30.4688C155.924 30.2617 155.992 30.0156 155.992 29.7305C155.992 29.418 155.932 29.1641 155.811 28.9688C155.693 28.7695 155.512 28.625 155.266 28.5352C155.023 28.4414 154.715 28.3945 154.34 28.3945H152.676V36H151.545V27.4688H154.34C154.777 27.4688 155.168 27.5137 155.512 27.6035C155.855 27.6895 156.146 27.8262 156.385 28.0137C156.627 28.1973 156.811 28.4316 156.936 28.7168C157.061 29.002 157.123 29.3438 157.123 29.7422C157.123 30.0938 157.033 30.4121 156.854 30.6973C156.674 30.9785 156.424 31.209 156.104 31.3887C155.787 31.5684 155.416 31.6836 154.99 31.7344L154.586 32.0098ZM154.533 36H151.979L152.617 35.0801H154.533C154.893 35.0801 155.197 35.0176 155.447 34.8926C155.701 34.7676 155.895 34.5918 156.027 34.3652C156.16 34.1348 156.227 33.8633 156.227 33.5508C156.227 33.2344 156.17 32.9609 156.057 32.7305C155.943 32.5 155.766 32.3223 155.523 32.1973C155.281 32.0723 154.969 32.0098 154.586 32.0098H152.975L152.986 31.1016H155.189L155.43 31.4297C155.84 31.4648 156.188 31.582 156.473 31.7812C156.758 31.9766 156.975 32.2266 157.123 32.5312C157.275 32.8359 157.352 33.1719 157.352 33.5391C157.352 34.0703 157.234 34.5195 157 34.8867C156.77 35.25 156.443 35.5273 156.021 35.7188C155.6 35.9062 155.104 36 154.533 36ZM160.152 27.4688V36H159.021V27.4688H160.152ZM163.727 31.3066V32.2324H159.906V31.3066H163.727ZM164.307 27.4688V28.3945H159.906V27.4688H164.307Z" fill="#21272A"/>
</svg>
