<svg width="165" height="39" viewBox="0 0 165 39" fill="none" xmlns="http://www.w3.org/2000/svg">
<path d="M6 22H21V20H6.012C5.55 19.988 5 19.805 5 19C5 18.195 5.55 18.012 6.012 18H21V4C21 2.897 20.103 2 19 2H6C4.794 2 3 2.799 3 5V19C3 21.201 4.794 22 6 22ZM5 8V5C5 4.195 5.55 4.012 6 4H19V16H5V8Z" fill="white"/>
<path d="M8 6H17V8H8V6Z" fill="white"/>
<path d="M39.4141 15.8398H42.918C42.8477 16.9883 42.5312 18.0078 41.9688 18.8984C41.4141 19.7891 40.6367 20.4844 39.6367 20.9844C38.6445 21.4844 37.4492 21.7344 36.0508 21.7344C34.957 21.7344 33.9766 21.5469 33.1094 21.1719C32.2422 20.7891 31.5 20.2422 30.8828 19.5312C30.2734 18.8203 29.8086 17.9609 29.4883 16.9531C29.168 15.9453 29.0078 14.8164 29.0078 13.5664V12.3828C29.0078 11.1328 29.1719 10.0039 29.5 8.99609C29.8359 7.98047 30.3125 7.11719 30.9297 6.40625C31.5547 5.69531 32.3008 5.14844 33.168 4.76562C34.0352 4.38281 35.0039 4.19141 36.0742 4.19141C37.4961 4.19141 38.6953 4.44922 39.6719 4.96484C40.6562 5.48047 41.418 6.19141 41.957 7.09766C42.5039 8.00391 42.832 9.03516 42.9414 10.1914H39.4258C39.3867 9.50391 39.25 8.92188 39.0156 8.44531C38.7812 7.96094 38.4258 7.59766 37.9492 7.35547C37.4805 7.10547 36.8555 6.98047 36.0742 6.98047C35.4883 6.98047 34.9766 7.08984 34.5391 7.30859C34.1016 7.52734 33.7344 7.85938 33.4375 8.30469C33.1406 8.75 32.918 9.3125 32.7695 9.99219C32.6289 10.6641 32.5586 11.4531 32.5586 12.3594V13.5664C32.5586 14.4492 32.625 15.2266 32.7578 15.8984C32.8906 16.5625 33.0938 17.125 33.3672 17.5859C33.6484 18.0391 34.0078 18.3828 34.4453 18.6172C34.8906 18.8438 35.4258 18.957 36.0508 18.957C36.7852 18.957 37.3906 18.8398 37.8672 18.6055C38.3438 18.3711 38.707 18.0234 38.957 17.5625C39.2148 17.1016 39.3672 16.5273 39.4141 15.8398ZM44.4766 15.2891V15.043C44.4766 14.1133 44.6094 13.2578 44.875 12.4766C45.1406 11.6875 45.5273 11.0039 46.0352 10.4258C46.543 9.84766 47.168 9.39844 47.9102 9.07812C48.6523 8.75 49.5039 8.58594 50.4648 8.58594C51.4258 8.58594 52.2812 8.75 53.0312 9.07812C53.7812 9.39844 54.4102 9.84766 54.918 10.4258C55.4336 11.0039 55.8242 11.6875 56.0898 12.4766C56.3555 13.2578 56.4883 14.1133 56.4883 15.043V15.2891C56.4883 16.2109 56.3555 17.0664 56.0898 17.8555C55.8242 18.6367 55.4336 19.3203 54.918 19.9062C54.4102 20.4844 53.7852 20.9336 53.043 21.2539C52.3008 21.5742 51.4492 21.7344 50.4883 21.7344C49.5273 21.7344 48.6719 21.5742 47.9219 21.2539C47.1797 20.9336 46.5508 20.4844 46.0352 19.9062C45.5273 19.3203 45.1406 18.6367 44.875 17.8555C44.6094 17.0664 44.4766 16.2109 44.4766 15.2891ZM47.8516 15.043V15.2891C47.8516 15.8203 47.8984 16.3164 47.9922 16.7773C48.0859 17.2383 48.2344 17.6445 48.4375 17.9961C48.6484 18.3398 48.9219 18.6094 49.2578 18.8047C49.5938 19 50.0039 19.0977 50.4883 19.0977C50.957 19.0977 51.3594 19 51.6953 18.8047C52.0312 18.6094 52.3008 18.3398 52.5039 17.9961C52.707 17.6445 52.8555 17.2383 52.9492 16.7773C53.0508 16.3164 53.1016 15.8203 53.1016 15.2891V15.043C53.1016 14.5273 53.0508 14.043 52.9492 13.5898C52.8555 13.1289 52.7031 12.7227 52.4922 12.3711C52.2891 12.0117 52.0195 11.7305 51.6836 11.5273C51.3477 11.3242 50.9414 11.2227 50.4648 11.2227C49.9883 11.2227 49.582 11.3242 49.2461 11.5273C48.918 11.7305 48.6484 12.0117 48.4375 12.3711C48.2344 12.7227 48.0859 13.1289 47.9922 13.5898C47.8984 14.043 47.8516 14.5273 47.8516 15.043ZM61.8672 11.5273V21.5H58.4922V8.82031H61.6562L61.8672 11.5273ZM61.375 14.7148H60.4609C60.4609 13.7773 60.582 12.9336 60.8242 12.1836C61.0664 11.4258 61.4062 10.7812 61.8438 10.25C62.2812 9.71094 62.8008 9.30078 63.4023 9.01953C64.0117 8.73047 64.6914 8.58594 65.4414 8.58594C66.0352 8.58594 66.5781 8.67188 67.0703 8.84375C67.5625 9.01562 67.9844 9.28906 68.3359 9.66406C68.6953 10.0391 68.9688 10.5352 69.1562 11.1523C69.3516 11.7695 69.4492 12.5234 69.4492 13.4141V21.5H66.0508V13.4023C66.0508 12.8398 65.9727 12.4023 65.8164 12.0898C65.6602 11.7773 65.4297 11.5586 65.125 11.4336C64.8281 11.3008 64.4609 11.2344 64.0234 11.2344C63.5703 11.2344 63.1758 11.3242 62.8398 11.5039C62.5117 11.6836 62.2383 11.9336 62.0195 12.2539C61.8086 12.5664 61.6484 12.9336 61.5391 13.3555C61.4297 13.7773 61.375 14.2305 61.375 14.7148ZM77.8516 21.7344C76.8672 21.7344 75.9844 21.5781 75.2031 21.2656C74.4219 20.9453 73.7578 20.5039 73.2109 19.9414C72.6719 19.3789 72.2578 18.7266 71.9688 17.9844C71.6797 17.2344 71.5352 16.4375 71.5352 15.5938V15.125C71.5352 14.1641 71.6719 13.2852 71.9453 12.4883C72.2188 11.6914 72.6094 11 73.1172 10.4141C73.6328 9.82812 74.2578 9.37891 74.9922 9.06641C75.7266 8.74609 76.5547 8.58594 77.4766 8.58594C78.375 8.58594 79.1719 8.73438 79.8672 9.03125C80.5625 9.32812 81.1445 9.75 81.6133 10.2969C82.0898 10.8438 82.4492 11.5 82.6914 12.2656C82.9336 13.0234 83.0547 13.8672 83.0547 14.7969V16.2031H72.9766V13.9531H79.7383V13.6953C79.7383 13.2266 79.6523 12.8086 79.4805 12.4414C79.3164 12.0664 79.0664 11.7695 78.7305 11.5508C78.3945 11.332 77.9648 11.2227 77.4414 11.2227C76.9961 11.2227 76.6133 11.3203 76.293 11.5156C75.9727 11.7109 75.7109 11.9844 75.5078 12.3359C75.3125 12.6875 75.1641 13.1016 75.0625 13.5781C74.9688 14.0469 74.9219 14.5625 74.9219 15.125V15.5938C74.9219 16.1016 74.9922 16.5703 75.1328 17C75.2812 17.4297 75.4883 17.8008 75.7539 18.1133C76.0273 18.4258 76.3555 18.668 76.7383 18.8398C77.1289 19.0117 77.5703 19.0977 78.0625 19.0977C78.6719 19.0977 79.2383 18.9805 79.7617 18.7461C80.293 18.5039 80.75 18.1406 81.1328 17.6562L82.7734 19.4375C82.5078 19.8203 82.1445 20.1875 81.6836 20.5391C81.2305 20.8906 80.6836 21.1797 80.043 21.4062C79.4023 21.625 78.6719 21.7344 77.8516 21.7344ZM90.2148 19.0977C90.6289 19.0977 90.9961 19.0195 91.3164 18.8633C91.6367 18.6992 91.8867 18.4727 92.0664 18.1836C92.2539 17.8867 92.3516 17.5391 92.3594 17.1406H95.5352C95.5273 18.0312 95.2891 18.8242 94.8203 19.5195C94.3516 20.207 93.7227 20.75 92.9336 21.1484C92.1445 21.5391 91.2617 21.7344 90.2852 21.7344C89.3008 21.7344 88.4414 21.5703 87.707 21.2422C86.9805 20.9141 86.375 20.4609 85.8906 19.8828C85.4062 19.2969 85.043 18.6172 84.8008 17.8438C84.5586 17.0625 84.4375 16.2266 84.4375 15.3359V14.9961C84.4375 14.0977 84.5586 13.2617 84.8008 12.4883C85.043 11.707 85.4062 11.0273 85.8906 10.4492C86.375 9.86328 86.9805 9.40625 87.707 9.07812C88.4336 8.75 89.2852 8.58594 90.2617 8.58594C91.3008 8.58594 92.2109 8.78516 92.9922 9.18359C93.7812 9.58203 94.3984 10.1523 94.8438 10.8945C95.2969 11.6289 95.5273 12.5 95.5352 13.5078H92.3594C92.3516 13.0859 92.2617 12.7031 92.0898 12.3594C91.9258 12.0156 91.6836 11.7422 91.3633 11.5391C91.0508 11.3281 90.6641 11.2227 90.2031 11.2227C89.7109 11.2227 89.3086 11.3281 88.9961 11.5391C88.6836 11.7422 88.4414 12.0234 88.2695 12.3828C88.0977 12.7344 87.9766 13.1367 87.9062 13.5898C87.8438 14.0352 87.8125 14.5039 87.8125 14.9961V15.3359C87.8125 15.8281 87.8438 16.3008 87.9062 16.7539C87.9688 17.207 88.0859 17.6094 88.2578 17.9609C88.4375 18.3125 88.6836 18.5898 88.9961 18.793C89.3086 18.9961 89.7148 19.0977 90.2148 19.0977ZM103.703 8.82031V11.2109H96.3203V8.82031H103.703ZM98.1484 5.69141H101.523V17.6797C101.523 18.0469 101.57 18.3281 101.664 18.5234C101.766 18.7188 101.914 18.8555 102.109 18.9336C102.305 19.0039 102.551 19.0391 102.848 19.0391C103.059 19.0391 103.246 19.0312 103.41 19.0156C103.582 18.9922 103.727 18.9688 103.844 18.9453L103.855 21.4297C103.566 21.5234 103.254 21.5977 102.918 21.6523C102.582 21.707 102.211 21.7344 101.805 21.7344C101.062 21.7344 100.414 21.6133 99.8594 21.3711C99.3125 21.1211 98.8906 20.7227 98.5938 20.1758C98.2969 19.6289 98.1484 18.9102 98.1484 18.0195V5.69141ZM112.469 18.6406V12.9922C112.469 12.5859 112.402 12.2383 112.27 11.9492C112.137 11.6523 111.93 11.4219 111.648 11.2578C111.375 11.0938 111.02 11.0117 110.582 11.0117C110.207 11.0117 109.883 11.0781 109.609 11.2109C109.336 11.3359 109.125 11.5195 108.977 11.7617C108.828 11.9961 108.754 12.2734 108.754 12.5938H105.379C105.379 12.0547 105.504 11.543 105.754 11.0586C106.004 10.5742 106.367 10.1484 106.844 9.78125C107.32 9.40625 107.887 9.11328 108.543 8.90234C109.207 8.69141 109.949 8.58594 110.77 8.58594C111.754 8.58594 112.629 8.75 113.395 9.07812C114.16 9.40625 114.762 9.89844 115.199 10.5547C115.645 11.2109 115.867 12.0312 115.867 13.0156V18.4414C115.867 19.1367 115.91 19.707 115.996 20.1523C116.082 20.5898 116.207 20.9727 116.371 21.3008V21.5H112.961C112.797 21.1562 112.672 20.7266 112.586 20.2109C112.508 19.6875 112.469 19.1641 112.469 18.6406ZM112.914 13.7773L112.938 15.6875H111.051C110.605 15.6875 110.219 15.7383 109.891 15.8398C109.562 15.9414 109.293 16.0859 109.082 16.2734C108.871 16.4531 108.715 16.6641 108.613 16.9062C108.52 17.1484 108.473 17.4141 108.473 17.7031C108.473 17.9922 108.539 18.2539 108.672 18.4883C108.805 18.7148 108.996 18.8945 109.246 19.0273C109.496 19.1523 109.789 19.2148 110.125 19.2148C110.633 19.2148 111.074 19.1133 111.449 18.9102C111.824 18.707 112.113 18.457 112.316 18.1602C112.527 17.8633 112.637 17.582 112.645 17.3164L113.535 18.7461C113.41 19.0664 113.238 19.3984 113.02 19.7422C112.809 20.0859 112.539 20.4102 112.211 20.7148C111.883 21.0117 111.488 21.2578 111.027 21.4531C110.566 21.6406 110.02 21.7344 109.387 21.7344C108.582 21.7344 107.852 21.5742 107.195 21.2539C106.547 20.9258 106.031 20.4766 105.648 19.9062C105.273 19.3281 105.086 18.6719 105.086 17.9375C105.086 17.2734 105.211 16.6836 105.461 16.168C105.711 15.6523 106.078 15.2188 106.562 14.8672C107.055 14.5078 107.668 14.2383 108.402 14.0586C109.137 13.8711 109.988 13.7773 110.957 13.7773H112.914ZM121.773 11.5273V21.5H118.398V8.82031H121.562L121.773 11.5273ZM121.281 14.7148H120.367C120.367 13.7773 120.488 12.9336 120.73 12.1836C120.973 11.4258 121.312 10.7812 121.75 10.25C122.188 9.71094 122.707 9.30078 123.309 9.01953C123.918 8.73047 124.598 8.58594 125.348 8.58594C125.941 8.58594 126.484 8.67188 126.977 8.84375C127.469 9.01562 127.891 9.28906 128.242 9.66406C128.602 10.0391 128.875 10.5352 129.062 11.1523C129.258 11.7695 129.355 12.5234 129.355 13.4141V21.5H125.957V13.4023C125.957 12.8398 125.879 12.4023 125.723 12.0898C125.566 11.7773 125.336 11.5586 125.031 11.4336C124.734 11.3008 124.367 11.2344 123.93 11.2344C123.477 11.2344 123.082 11.3242 122.746 11.5039C122.418 11.6836 122.145 11.9336 121.926 12.2539C121.715 12.5664 121.555 12.9336 121.445 13.3555C121.336 13.7773 121.281 14.2305 121.281 14.7148ZM139.41 18.7344V3.5H142.809V21.5H139.75L139.41 18.7344ZM131.395 15.3125V15.0664C131.395 14.0977 131.504 13.2188 131.723 12.4297C131.941 11.6328 132.262 10.9492 132.684 10.3789C133.105 9.80859 133.625 9.36719 134.242 9.05469C134.859 8.74219 135.562 8.58594 136.352 8.58594C137.094 8.58594 137.742 8.74219 138.297 9.05469C138.859 9.36719 139.336 9.8125 139.727 10.3906C140.125 10.9609 140.445 11.6367 140.688 12.418C140.93 13.1914 141.105 14.0391 141.215 14.9609V15.5C141.105 16.3828 140.93 17.2031 140.688 17.9609C140.445 18.7188 140.125 19.3828 139.727 19.9531C139.336 20.5156 138.859 20.9531 138.297 21.2656C137.734 21.5781 137.078 21.7344 136.328 21.7344C135.539 21.7344 134.836 21.5742 134.219 21.2539C133.609 20.9336 133.094 20.4844 132.672 19.9062C132.258 19.3281 131.941 18.6484 131.723 17.8672C131.504 17.0859 131.395 16.2344 131.395 15.3125ZM134.77 15.0664V15.3125C134.77 15.8359 134.809 16.3242 134.887 16.7773C134.973 17.2305 135.109 17.6328 135.297 17.9844C135.492 18.3281 135.742 18.5977 136.047 18.793C136.359 18.9805 136.738 19.0742 137.184 19.0742C137.762 19.0742 138.238 18.9453 138.613 18.6875C138.988 18.4219 139.273 18.0586 139.469 17.5977C139.672 17.1367 139.789 16.6055 139.82 16.0039V14.4688C139.797 13.9766 139.727 13.5352 139.609 13.1445C139.5 12.7461 139.336 12.4062 139.117 12.125C138.906 11.8438 138.641 11.625 138.32 11.4688C138.008 11.3125 137.637 11.2344 137.207 11.2344C136.77 11.2344 136.395 11.3359 136.082 11.5391C135.77 11.7344 135.516 12.0039 135.32 12.3477C135.133 12.6914 134.992 13.0977 134.898 13.5664C134.812 14.0273 134.77 14.5273 134.77 15.0664ZM144.906 15.2891V15.043C144.906 14.1133 145.039 13.2578 145.305 12.4766C145.57 11.6875 145.957 11.0039 146.465 10.4258C146.973 9.84766 147.598 9.39844 148.34 9.07812C149.082 8.75 149.934 8.58594 150.895 8.58594C151.855 8.58594 152.711 8.75 153.461 9.07812C154.211 9.39844 154.84 9.84766 155.348 10.4258C155.863 11.0039 156.254 11.6875 156.52 12.4766C156.785 13.2578 156.918 14.1133 156.918 15.043V15.2891C156.918 16.2109 156.785 17.0664 156.52 17.8555C156.254 18.6367 155.863 19.3203 155.348 19.9062C154.84 20.4844 154.215 20.9336 153.473 21.2539C152.73 21.5742 151.879 21.7344 150.918 21.7344C149.957 21.7344 149.102 21.5742 148.352 21.2539C147.609 20.9336 146.98 20.4844 146.465 19.9062C145.957 19.3203 145.57 18.6367 145.305 17.8555C145.039 17.0664 144.906 16.2109 144.906 15.2891ZM148.281 15.043V15.2891C148.281 15.8203 148.328 16.3164 148.422 16.7773C148.516 17.2383 148.664 17.6445 148.867 17.9961C149.078 18.3398 149.352 18.6094 149.688 18.8047C150.023 19 150.434 19.0977 150.918 19.0977C151.387 19.0977 151.789 19 152.125 18.8047C152.461 18.6094 152.73 18.3398 152.934 17.9961C153.137 17.6445 153.285 17.2383 153.379 16.7773C153.48 16.3164 153.531 15.8203 153.531 15.2891V15.043C153.531 14.5273 153.48 14.043 153.379 13.5898C153.285 13.1289 153.133 12.7227 152.922 12.3711C152.719 12.0117 152.449 11.7305 152.113 11.5273C151.777 11.3242 151.371 11.2227 150.895 11.2227C150.418 11.2227 150.012 11.3242 149.676 11.5273C149.348 11.7305 149.078 12.0117 148.867 12.3711C148.664 12.7227 148.516 13.1289 148.422 13.5898C148.328 14.043 148.281 14.5273 148.281 15.043ZM162.801 4.4375L162.414 16.2852H159.602L159.203 4.4375H162.801ZM159.109 19.9531C159.109 19.4531 159.281 19.0391 159.625 18.7109C159.977 18.375 160.438 18.207 161.008 18.207C161.586 18.207 162.047 18.375 162.391 18.7109C162.734 19.0391 162.906 19.4531 162.906 19.9531C162.906 20.4375 162.734 20.8477 162.391 21.1836C162.047 21.5195 161.586 21.6875 161.008 21.6875C160.438 21.6875 159.977 21.5195 159.625 21.1836C159.281 20.8477 159.109 20.4375 159.109 19.9531Z" fill="white"/>
<path d="M109.82 26.5H110.91V34.2695L110.816 35.5H109.82V26.5ZM115.193 32.2773V32.4004C115.193 32.8613 115.139 33.2891 115.029 33.6836C114.92 34.0742 114.76 34.4141 114.549 34.7031C114.338 34.9922 114.08 35.2168 113.775 35.377C113.471 35.5371 113.121 35.6172 112.727 35.6172C112.324 35.6172 111.971 35.5488 111.666 35.4121C111.365 35.2715 111.111 35.0703 110.904 34.8086C110.697 34.5469 110.531 34.2305 110.406 33.8594C110.285 33.4883 110.201 33.0703 110.154 32.6055V32.0664C110.201 31.5977 110.285 31.1777 110.406 30.8066C110.531 30.4355 110.697 30.1191 110.904 29.8574C111.111 29.5918 111.365 29.3906 111.666 29.2539C111.967 29.1133 112.316 29.043 112.715 29.043C113.113 29.043 113.467 29.1211 113.775 29.2773C114.084 29.4297 114.342 29.6484 114.549 29.9336C114.76 30.2188 114.92 30.5605 115.029 30.959C115.139 31.3535 115.193 31.793 115.193 32.2773ZM114.104 32.4004V32.2773C114.104 31.9609 114.074 31.6641 114.016 31.3867C113.957 31.1055 113.863 30.8594 113.734 30.6484C113.605 30.4336 113.436 30.2656 113.225 30.1445C113.014 30.0195 112.754 29.957 112.445 29.957C112.172 29.957 111.934 30.0039 111.73 30.0977C111.531 30.1914 111.361 30.3184 111.221 30.4785C111.08 30.6348 110.965 30.8145 110.875 31.0176C110.789 31.2168 110.725 31.4238 110.682 31.6387V33.0508C110.744 33.3242 110.846 33.5879 110.986 33.8418C111.131 34.0918 111.322 34.2969 111.561 34.457C111.803 34.6172 112.102 34.6973 112.457 34.6973C112.75 34.6973 113 34.6387 113.207 34.5215C113.418 34.4004 113.588 34.2344 113.717 34.0234C113.85 33.8125 113.947 33.5684 114.01 33.291C114.072 33.0137 114.104 32.7168 114.104 32.4004ZM118.275 34.8438L120.039 29.1602H121.199L118.656 36.4785C118.598 36.6348 118.52 36.8027 118.422 36.9824C118.328 37.166 118.207 37.3398 118.059 37.5039C117.91 37.668 117.73 37.8008 117.52 37.9023C117.312 38.0078 117.064 38.0605 116.775 38.0605C116.689 38.0605 116.58 38.0488 116.447 38.0254C116.314 38.002 116.221 37.9824 116.166 37.9668L116.16 37.0879C116.191 37.0918 116.24 37.0957 116.307 37.0996C116.377 37.1074 116.426 37.1113 116.453 37.1113C116.699 37.1113 116.908 37.0781 117.08 37.0117C117.252 36.9492 117.396 36.8418 117.514 36.6895C117.635 36.541 117.738 36.3359 117.824 36.0742L118.275 34.8438ZM116.98 29.1602L118.627 34.082L118.908 35.2246L118.129 35.623L115.797 29.1602H116.98ZM131.623 31.252V34.375C131.518 34.5312 131.35 34.707 131.119 34.9023C130.889 35.0938 130.57 35.2617 130.164 35.4062C129.762 35.5469 129.242 35.6172 128.605 35.6172C128.086 35.6172 127.607 35.5273 127.17 35.3477C126.736 35.1641 126.359 34.8984 126.039 34.5508C125.723 34.1992 125.477 33.7734 125.301 33.2734C125.129 32.7695 125.043 32.1992 125.043 31.5625V30.9004C125.043 30.2637 125.117 29.6953 125.266 29.1953C125.418 28.6953 125.641 28.2715 125.934 27.9238C126.227 27.5723 126.586 27.3066 127.012 27.127C127.438 26.9434 127.926 26.8516 128.477 26.8516C129.129 26.8516 129.674 26.9648 130.111 27.1914C130.553 27.4141 130.896 27.7227 131.143 28.1172C131.393 28.5117 131.553 28.9609 131.623 29.4648H130.492C130.441 29.1562 130.34 28.875 130.188 28.6211C130.039 28.3672 129.826 28.1641 129.549 28.0117C129.271 27.8555 128.914 27.7773 128.477 27.7773C128.082 27.7773 127.74 27.8496 127.451 27.9941C127.162 28.1387 126.924 28.3457 126.736 28.6152C126.549 28.8848 126.408 29.2109 126.314 29.5938C126.225 29.9766 126.18 30.4082 126.18 30.8887V31.5625C126.18 32.0547 126.236 32.4941 126.35 32.8809C126.467 33.2676 126.633 33.5977 126.848 33.8711C127.062 34.1406 127.318 34.3457 127.615 34.4863C127.916 34.627 128.248 34.6973 128.611 34.6973C129.014 34.6973 129.34 34.6641 129.59 34.5977C129.84 34.5273 130.035 34.4453 130.176 34.3516C130.316 34.2539 130.424 34.1621 130.498 34.0762V32.166H128.523V31.252H131.623ZM136.645 32.1543H134.365V31.2344H136.645C137.086 31.2344 137.443 31.1641 137.717 31.0234C137.99 30.8828 138.189 30.6875 138.314 30.4375C138.443 30.1875 138.508 29.9023 138.508 29.582C138.508 29.2891 138.443 29.0137 138.314 28.7559C138.189 28.498 137.99 28.291 137.717 28.1348C137.443 27.9746 137.086 27.8945 136.645 27.8945H134.629V35.5H133.498V26.9688H136.645C137.289 26.9688 137.834 27.0801 138.279 27.3027C138.725 27.5254 139.062 27.834 139.293 28.2285C139.523 28.6191 139.639 29.0664 139.639 29.5703C139.639 30.1172 139.523 30.584 139.293 30.9707C139.062 31.3574 138.725 31.6523 138.279 31.8555C137.834 32.0547 137.289 32.1543 136.645 32.1543ZM143.16 31.4277V32.3184H140.301V31.4277H143.16ZM147.537 26.9688V35.5H146.424V26.9688H147.537ZM150.279 26.9688V27.8945H143.688V26.9688H150.279ZM154.586 31.5098H152.424L152.412 30.6016H154.375C154.699 30.6016 154.982 30.5469 155.225 30.4375C155.467 30.3281 155.654 30.1719 155.787 29.9688C155.924 29.7617 155.992 29.5156 155.992 29.2305C155.992 28.918 155.932 28.6641 155.811 28.4688C155.693 28.2695 155.512 28.125 155.266 28.0352C155.023 27.9414 154.715 27.8945 154.34 27.8945H152.676V35.5H151.545V26.9688H154.34C154.777 26.9688 155.168 27.0137 155.512 27.1035C155.855 27.1895 156.146 27.3262 156.385 27.5137C156.627 27.6973 156.811 27.9316 156.936 28.2168C157.061 28.502 157.123 28.8438 157.123 29.2422C157.123 29.5938 157.033 29.9121 156.854 30.1973C156.674 30.4785 156.424 30.709 156.104 30.8887C155.787 31.0684 155.416 31.1836 154.99 31.2344L154.586 31.5098ZM154.533 35.5H151.979L152.617 34.5801H154.533C154.893 34.5801 155.197 34.5176 155.447 34.3926C155.701 34.2676 155.895 34.0918 156.027 33.8652C156.16 33.6348 156.227 33.3633 156.227 33.0508C156.227 32.7344 156.17 32.4609 156.057 32.2305C155.943 32 155.766 31.8223 155.523 31.6973C155.281 31.5723 154.969 31.5098 154.586 31.5098H152.975L152.986 30.6016H155.189L155.43 30.9297C155.84 30.9648 156.188 31.082 156.473 31.2812C156.758 31.4766 156.975 31.7266 157.123 32.0312C157.275 32.3359 157.352 32.6719 157.352 33.0391C157.352 33.5703 157.234 34.0195 157 34.3867C156.77 34.75 156.443 35.0273 156.021 35.2188C155.6 35.4062 155.104 35.5 154.533 35.5ZM160.152 26.9688V35.5H159.021V26.9688H160.152ZM163.727 30.8066V31.7324H159.906V30.8066H163.727ZM164.307 26.9688V27.8945H159.906V26.9688H164.307Z" fill="white"/>
</svg>
