<svg width="114" height="38" viewBox="0 0 114 38" fill="none" xmlns="http://www.w3.org/2000/svg">
<path d="M0 27.4299C0 23.543 2.008 21 5.476 21C9.129 21 10.975 23.7939 10.975 27.4634C10.975 31.3281 8.967 33.8933 5.515 33.8933C1.879 33.8933 0 31.1384 0 27.4299ZM9.67001 27.5191C9.67001 24.1508 8.114 22.1823 5.482 22.1823C2.85 22.1823 1.311 24.1174 1.311 27.3742C1.311 30.631 2.867 32.7111 5.515 32.7111C8.164 32.7111 9.67001 30.7591 9.67001 27.5191Z" fill="#6F7779"/>
<path d="M20.7681 28.9521C20.7681 32.0695 19.1731 33.8596 16.2001 33.8596C15.4141 33.8596 14.7841 33.7536 14.2491 33.5529V37.0773H12.9941V24.686C13.9251 24.3793 15.0011 24.1841 16.1281 24.1841C19.2791 24.1841 20.7681 25.885 20.7681 28.9465V28.9521ZM19.4961 29.0246C19.4961 26.6768 18.4421 25.2994 16.0611 25.2994C15.4361 25.2994 14.8062 25.3887 14.2542 25.5169V32.4989C14.8452 32.6941 15.4871 32.7833 16.1341 32.7833C18.3361 32.7833 19.5021 31.4393 19.5021 29.0246H19.4961Z" fill="#6F7779"/>
<path d="M29.8304 29.4541H23.1884C23.3504 31.6011 24.4764 32.7499 26.5174 32.7499C27.4824 32.7499 28.5584 32.538 29.5234 31.9803C29.4904 32.3038 29.4174 32.7834 29.3284 33.1793C28.4304 33.6979 27.4994 33.8597 26.4844 33.8597C23.4954 33.8597 21.9004 32.0528 21.9004 28.9745C21.9004 26.3088 23.1164 24.1953 26.0544 24.1953C28.7424 24.1953 29.9024 26.0412 29.9024 28.3499C29.9024 28.7235 29.8864 29.1028 29.8304 29.4597V29.4541ZM23.1884 28.3276H28.6314V28.2551C28.6314 26.4817 27.7724 25.2828 25.9994 25.2828C24.2254 25.2828 23.3334 26.465 23.1884 28.3276Z" fill="#6F7779"/>
<path d="M39.266 27.5915V33.6422H38.011V27.8257C38.011 26.1583 37.386 25.2995 35.183 25.2995C34.537 25.2995 33.789 25.3887 33.109 25.5504V33.6422H31.854V24.6916C33.053 24.3681 34.219 24.1897 35.222 24.1897C38.251 24.1897 39.271 25.4277 39.271 27.5915H39.266Z" fill="#6F7779"/>
<path d="M51.1939 30.6141H45.6619L44.6249 33.6423H43.2969L47.6139 21.3233C48.0599 21.2174 48.6509 21.1616 49.1859 21.1616L53.5529 33.6423H52.2259L51.1879 30.6141H51.1939ZM50.7979 29.4319L48.4339 22.4666L46.0519 29.4319H50.7979Z" fill="#6F7779"/>
<path d="M54.1499 29.0582C54.1499 26.1193 55.6889 24.1897 58.8789 24.1897C59.6149 24.1897 60.3119 24.3124 61.0089 24.6191C60.9919 24.9927 60.9359 25.3552 60.8639 25.7121C60.1839 25.4054 59.4699 25.2995 58.8789 25.2995C56.5869 25.2995 55.4209 26.6769 55.4209 29.0247C55.4209 31.5844 56.7819 32.7499 58.6279 32.7499C59.4529 32.7499 60.2949 32.499 60.9919 32.0361C60.9589 32.393 60.9029 32.8392 60.8299 33.2351C60.1839 33.6812 59.3809 33.8597 58.5219 33.8597C55.8899 33.8597 54.1549 32.1421 54.1549 29.0637L54.1499 29.0582Z" fill="#6F7779"/>
<path d="M69.6919 24.6916V33.6422H68.5259L68.493 32.9451C67.885 33.4805 67.0599 33.8597 66.0559 33.8597C63.5129 33.8597 61.9399 32.1588 61.9399 29.0972C61.9399 26.0356 63.4959 24.1897 66.7029 24.1897C67.8129 24.1897 68.7439 24.3347 69.6919 24.6916ZM66.1619 32.8224C67.0929 32.8224 67.846 32.4822 68.437 31.9079V25.5169C67.902 25.3719 67.3439 25.2995 66.7029 25.2995C64.3049 25.2995 63.2119 26.6937 63.2119 29.0972C63.2119 31.5008 64.2159 32.8224 66.1679 32.8224H66.1619Z" fill="#6F7779"/>
<path d="M79.3058 21.145V33.6423H78.1408L78.0848 32.8894C77.4768 33.4806 76.6348 33.8542 75.3628 33.8542C73.0878 33.8542 71.4988 32.1533 71.4988 29.0917C71.4988 26.0302 73.0548 24.1843 76.1718 24.1843C76.8358 24.1843 77.4598 24.2735 78.0508 24.4352V21.3179C78.4248 21.1952 78.8938 21.1394 79.3058 21.1394V21.145ZM75.6928 32.8169C76.6408 32.8169 77.4488 32.4433 78.0568 31.8522V25.584C77.4098 25.4056 76.7298 25.2996 76.1218 25.2996C73.8628 25.2996 72.7758 26.6436 72.7758 29.0973C72.7758 31.406 73.7628 32.8225 75.6928 32.8225V32.8169Z" fill="#6F7779"/>
<path d="M88.9979 29.4541H82.3569C82.5179 31.6011 83.6449 32.7499 85.6859 32.7499C86.6509 32.7499 87.7269 32.538 88.6919 31.9803C88.6579 32.3038 88.5859 32.7834 88.4959 33.1793C87.6039 33.6979 86.6729 33.8597 85.6519 33.8597C82.6629 33.8597 81.0679 32.0528 81.0679 28.9745C81.0679 26.3088 82.2839 24.1953 85.2229 24.1953C87.9109 24.1953 89.0709 26.0412 89.0709 28.3499C89.0709 28.7235 89.0539 29.1028 88.9979 29.4597V29.4541ZM82.3569 28.3276H87.7989V28.2551C87.7989 26.4817 86.9409 25.2828 85.1669 25.2828C83.3939 25.2828 82.5019 26.465 82.3569 28.3276Z" fill="#6F7779"/>
<path d="M104.273 27.5915V33.6422H103.018V27.7867C103.018 26.1583 102.232 25.2995 100.386 25.2995C99.5609 25.2995 98.7579 25.4946 98.0049 25.8181C98.1999 26.281 98.3109 26.8721 98.3109 27.5915V33.6422H97.0569V27.7532C97.0569 26.0188 96.343 25.2995 94.424 25.2995C93.744 25.2995 92.9749 25.3887 92.2769 25.5504V33.6422H91.0229V24.6916C92.2219 24.3681 93.4039 24.1897 94.5529 24.1897C95.8069 24.1897 96.7389 24.4239 97.3629 24.9425C98.3499 24.4797 99.4039 24.1897 100.497 24.1897C103.202 24.1897 104.273 25.4277 104.273 27.5915Z" fill="#6F7779"/>
<path d="M113.887 24.4016L109.894 34.6404C109.197 36.4472 108.316 37.2559 106.76 37.2559C106.492 37.2559 106.186 37.2224 105.935 37.1666C105.952 36.793 105.991 36.397 106.041 36.0736C106.219 36.1071 106.437 36.1461 106.632 36.1461C107.831 36.1461 108.389 35.6275 108.996 33.8541L105.149 24.4016H106.509L109.604 32.2592L112.56 24.4016H113.887Z" fill="#6F7779"/>
<path d="M18.6629 8.30925C18.635 7.65678 18.4509 7.00431 18.1108 6.41876L15.1272 1.24918C14.8986 0.853232 14.7425 0.434981 14.6532 0L14.5305 0.21749C13.7889 1.49455 13.7889 3.07275 14.5305 4.35539L16.9174 8.49328C17.6535 9.77592 17.6535 11.3485 16.9174 12.6312L16.7947 12.8487C16.7054 12.4137 16.5493 11.9954 16.3207 11.5995L14.1346 7.81293L12.7404 5.39265C12.5118 4.9967 12.3556 4.57845 12.2664 4.14347L12.1437 4.36096C11.4076 5.63802 11.4076 7.20507 12.1382 8.48213L14.5361 12.6312C15.2778 13.9082 15.2778 15.4864 14.5361 16.7691L14.4134 16.9866C14.3242 16.5516 14.1681 16.1333 13.9394 15.7374L10.9559 10.5678C10.5544 9.8763 10.3703 9.09556 10.4038 8.3204C7.20836 9.15691 5 10.9303 5 12.9825C5 15.8378 9.26616 18.1521 14.5361 18.1521C19.8061 18.1521 24.0722 15.8378 24.0722 12.9825C24.0722 10.9303 21.8639 9.15691 18.6684 8.3204L18.6629 8.30925ZM27.6636 17.1371C27.6971 16.401 27.8086 15.8991 28.0038 15.3303C29.0076 15.7932 30.2958 16.0274 31.2829 16.0274C32.9503 16.0274 33.8816 15.492 33.8816 14.4324C33.8816 13.3729 33.2013 12.91 31.5171 12.1739L30.6025 11.7779C28.9184 11.0418 27.7752 10.0938 27.7752 8.19772C27.7752 6.15665 29.1916 4.84613 32.0915 4.84613C33.257 4.84613 34.3501 5.00786 35.3706 5.36477C35.3148 6.07858 35.1921 6.63625 35.0137 7.15488C34.0489 6.79797 32.9001 6.63625 32.0748 6.63625C30.5189 6.63625 29.7995 7.24411 29.7995 8.19214C29.7995 9.14018 30.4966 9.65881 31.7513 10.1997L32.7161 10.6124C34.9914 11.5772 35.9394 12.5977 35.9394 14.3376C35.9394 16.3954 34.3835 17.8119 31.3387 17.8119C29.872 17.8119 28.673 17.5944 27.6692 17.1316L27.6636 17.1371ZM45.5536 8.57693V17.5331H43.7468L43.6408 16.4568C43.1389 17.2431 42.3693 17.745 41.1146 17.745C38.7501 17.745 37.1774 16.0274 37.1774 13.016C37.1774 10.0046 38.8616 8.07503 42.1741 8.07503C43.4624 8.07503 44.5219 8.22002 45.5592 8.57693H45.5536ZM43.585 15.492V9.87072C43.1724 9.79822 42.7262 9.76476 42.1686 9.76476C40.1275 9.76476 39.1795 11.0195 39.1795 13.0215C39.1795 14.8507 39.9156 16.1389 41.6667 16.1389C42.4362 16.1389 43.0608 15.888 43.585 15.492ZM55.6362 11.5158V17.5331H53.6677V11.856C53.6677 10.4395 53.2048 9.75919 51.2307 9.75919C50.7678 9.75919 50.2101 9.81495 49.6748 9.90418V17.5331H47.7062V8.57693C48.961 8.27021 50.3384 8.07503 51.2864 8.07503C54.5823 8.07503 55.6362 9.34651 55.6362 11.5158ZM61.1014 16.0664C61.6758 16.0664 62.2111 15.9605 62.6406 15.7987C62.5848 16.3341 62.5179 16.9475 62.4063 17.4662C61.871 17.6836 61.2966 17.7506 60.7389 17.7506C58.8205 17.7506 57.6048 16.875 57.6048 14.689V5.28669C58.2127 5.09151 58.9655 5.00228 59.5734 5.00228V8.38732H62.6907C62.6573 8.99518 62.6015 9.55285 62.5123 10.0715H59.5734V14.4603C59.5734 15.6259 60.1478 16.072 61.0958 16.072L61.1014 16.0664ZM71.6692 8.58251V17.5387H69.8624L69.7564 16.4624C69.2545 17.2487 68.4849 17.7506 67.2302 17.7506C64.8657 17.7506 63.293 16.033 63.293 13.0215C63.293 10.0101 64.9772 8.08061 68.2897 8.08061C69.5779 8.08061 70.6375 8.2256 71.6748 8.58251H71.6692ZM69.7006 15.4976V9.8763C69.288 9.8038 68.8418 9.77034 68.2842 9.77034C66.2431 9.77034 65.2951 11.0251 65.2951 13.0271C65.2951 14.8563 66.0312 16.1445 67.7822 16.1445C68.5518 16.1445 69.1764 15.8935 69.7006 15.4976ZM81.7518 11.5214V17.5387H79.7833V11.8616C79.7833 10.4451 79.3204 9.76476 77.3463 9.76476C76.8834 9.76476 76.3257 9.82053 75.7904 9.90976V17.5387H73.8218V8.58251C75.0765 8.27579 76.454 8.08061 77.402 8.08061C80.6978 8.08061 81.7518 9.35209 81.7518 11.5214ZM91.7452 5.00228V17.5387H89.9384L89.8324 16.3899C89.3305 17.2319 88.561 17.7506 87.2727 17.7506C84.9082 17.7506 83.3356 16.033 83.3356 13.0215C83.3356 10.0101 85.0198 8.08061 88.3323 8.08061C88.8509 8.08061 89.3361 8.13638 89.799 8.2256V5.26996C90.4068 5.05247 91.1039 5.00228 91.7508 5.00228H91.7452ZM89.7934 15.4586V9.94322C89.2748 9.83726 88.7394 9.76476 88.2152 9.76476C86.2634 9.76476 85.3321 10.9805 85.3321 13.0215C85.3321 14.8507 86.0682 16.1389 87.8193 16.1389C88.6056 16.1389 89.2525 15.8712 89.7878 15.4586H89.7934ZM101.649 13.7019H95.3645C95.6155 15.2968 96.5468 16.0664 98.3034 16.0664C99.3797 16.0664 100.473 15.8322 101.454 15.3861C101.382 15.9047 101.276 16.585 101.147 17.1762C100.25 17.5888 99.3016 17.7506 98.2477 17.7506C94.9518 17.7506 93.3569 15.9214 93.3569 12.8598C93.3569 10.1942 94.5949 8.08061 97.729 8.08061C100.54 8.08061 101.761 9.92649 101.761 12.1795C101.761 12.7371 101.727 13.1833 101.655 13.7019H101.649ZM95.3255 12.0568H99.7645C99.7645 10.5901 98.9782 9.7313 97.6175 9.7313C96.2568 9.7313 95.4872 10.5399 95.3255 12.0568ZM108.542 8.1531C108.542 8.74423 108.47 9.45805 108.364 9.83726C107.901 9.7815 107.432 9.76476 106.875 9.76476C106.39 9.76476 105.91 9.79822 105.425 9.87072V17.5331H103.456V8.57693C104.298 8.29252 105.715 8.07503 106.825 8.07503C107.432 8.07503 108.113 8.09176 108.542 8.14753V8.1531Z" fill="#697077"/>
</svg>
