<svg width="120" height="33" viewBox="0 0 120 33" fill="none" xmlns="http://www.w3.org/2000/svg">
<path d="M42.4282 3.68579H50.2726V5.70914H44.6228V8.57295H49.8523V10.5963H44.6228V15.4835H42.4282V3.68579Z" fill="#697077"/>
<path d="M50.9418 6.89209H53.0429V11.8726C53.0429 12.9621 53.8056 13.7248 54.8951 13.7248C55.9846 13.7248 56.7472 12.9621 56.7472 11.8726V6.89209H58.8484V15.4835H56.9029L56.7317 14.6431H56.6538C56.4982 14.8298 56.2959 15.001 56.078 15.1411C55.6889 15.3901 55.0818 15.6392 54.2881 15.6392C52.3425 15.6392 50.9106 14.2073 50.9106 12.0127V6.89209H50.9418Z" fill="#697077"/>
<path d="M60.5605 6.89221H62.5061L62.6773 7.73268H62.7551C62.9107 7.54591 63.1131 7.37471 63.331 7.23463C63.7201 6.9856 64.3115 6.73657 65.1209 6.73657C67.0664 6.73657 68.4983 8.16848 68.4983 10.363V15.4992H66.3971V10.5187C66.3971 9.42918 65.6345 8.66653 64.545 8.66653C63.4555 8.66653 62.6928 9.42918 62.6928 10.5187V15.4992H60.5917V6.89221H60.5605Z" fill="#697077"/>
<path d="M76.2336 14.5652H76.1558C75.9846 14.7831 75.7823 14.9698 75.5488 15.1255C75.1441 15.3901 74.506 15.6702 73.6344 15.6702C71.4398 15.6702 69.6655 13.8959 69.6655 11.2033C69.6655 8.51069 71.4398 6.73637 73.6344 6.73637C74.4904 6.73637 75.0819 7.01653 75.4865 7.29669C75.72 7.45233 75.9223 7.6391 76.078 7.84143H76.1558V3.68579H78.257V15.4835H76.4048L76.2336 14.5652ZM76.1558 11.1877C76.1558 9.56906 75.2531 8.66634 73.9613 8.66634C72.685 8.66634 71.7667 9.56906 71.7667 11.1877C71.7667 12.8064 72.685 13.7091 73.9613 13.7091C75.2375 13.7247 76.1558 12.8064 76.1558 11.1877Z" fill="#697077"/>
<path d="M85.2607 14.643H85.1829C85.0272 14.8298 84.8249 15.001 84.5914 15.1411C84.1868 15.3901 83.5953 15.6391 82.7393 15.6391C80.7782 15.6391 79.6265 14.4407 79.6265 13.0243C79.6265 11.3434 80.8093 10.1605 83.1595 10.1605H85.1051V9.98931C85.1051 9.03989 84.5292 8.38619 83.5953 8.38619C82.6459 8.38619 82.1634 8.9932 82.0856 9.47569H79.9844C80.1712 8.05935 81.323 6.6897 83.6109 6.6897C85.8055 6.6897 87.2374 8.13717 87.2374 9.97374V15.4523H85.463L85.2607 14.643ZM85.0895 11.7792H83.3152C82.2257 11.7792 81.7121 12.1994 81.7121 12.8687C81.7121 13.5379 82.1946 13.9582 83.0662 13.9582C84.3424 13.9582 85.0895 13.2111 85.0895 12.0127V11.7792Z" fill="#697077"/>
<path d="M96.8093 12.2774C96.5447 13.6315 95.4708 15.6548 92.7626 15.6548C90.2412 15.6548 88.3735 13.8027 88.3735 11.1879C88.3735 8.57309 90.2257 6.72095 92.7626 6.72095C95.4708 6.72095 96.5447 8.74429 96.8093 10.005H94.7082C94.5214 9.5225 94.0389 8.65091 92.7626 8.65091C91.5019 8.65091 90.4903 9.66258 90.4903 11.1723C90.4903 12.682 91.5019 13.6937 92.7626 13.6937C94.0233 13.6937 94.5214 12.8532 94.7082 12.2618H96.8093V12.2774Z" fill="#697077"/>
<path d="M97.9922 6.89209H100.093V15.4835H97.9922V6.89209Z" fill="#697077"/>
<path d="M110.132 11.1878C110.132 13.8026 108.28 15.6547 105.743 15.6547C103.222 15.6547 101.354 13.8026 101.354 11.1878C101.354 8.57302 103.206 6.72088 105.743 6.72088C108.28 6.72088 110.132 8.57302 110.132 11.1878ZM108.015 11.1878C108.015 9.67808 107.004 8.6664 105.743 8.6664C104.482 8.6664 103.471 9.67808 103.471 11.1878C103.471 12.6975 104.482 13.7092 105.743 13.7092C107.004 13.7248 108.015 12.7131 108.015 11.1878ZM106.506 3.26562H108.7L106.677 5.7092H104.903L106.506 3.26562Z" fill="#697077"/>
<path d="M111.393 6.89221H113.339L113.51 7.73268H113.588C113.743 7.54591 113.946 7.37471 114.163 7.23463C114.553 6.9856 115.144 6.73657 115.953 6.73657C117.899 6.73657 119.331 8.16848 119.331 10.363V15.4992H117.23V10.5187C117.23 9.42918 116.467 8.66653 115.377 8.66653C114.288 8.66653 113.525 9.42918 113.525 10.5187V15.4992H111.424V6.89221H111.393Z" fill="#697077"/>
<path d="M99.0352 5.64701C99.7228 5.64701 100.28 5.08954 100.28 4.40187C100.28 3.7142 99.7228 3.15674 99.0352 3.15674C98.3475 3.15674 97.79 3.7142 97.79 4.40187C97.79 5.08954 98.3475 5.64701 99.0352 5.64701Z" fill="#697077"/>
<path d="M45.0428 22.3163H41.5098V20.2151H50.786V22.3163H47.253V32.0128H45.0584V22.3163H45.0428Z" fill="#697077"/>
<path d="M58.1788 29.4912C57.992 30.1605 56.9336 32.1839 54.2099 32.1839C51.6885 32.1839 49.8208 30.3317 49.8208 27.7169C49.8208 25.1021 51.6729 23.25 54.2099 23.25C56.5757 23.25 58.4278 25.1021 58.4278 27.5457C58.4278 27.7947 58.3967 27.9971 58.3811 28.1527L58.35 28.3862H51.9375C52.1243 29.5846 53.0115 30.4095 54.2099 30.4095C55.206 30.4095 55.813 29.8337 55.9842 29.4757H58.1788V29.4912ZM56.3266 26.9543C56.1399 25.8648 55.4239 25.0088 54.2255 25.0088C52.9492 25.0088 52.2021 25.8492 51.9531 26.9543H56.3266Z" fill="#697077"/>
<path d="M59.689 20.2151H61.7901V32.0128H59.689V20.2151Z" fill="#697077"/>
<path d="M71.4088 29.4912C71.222 30.1605 70.1636 32.1839 67.4399 32.1839C64.9185 32.1839 63.0508 30.3317 63.0508 27.7169C63.0508 25.1021 64.9029 23.25 67.4399 23.25C69.8056 23.25 71.6578 25.1021 71.6578 27.5457C71.6578 27.7947 71.6267 27.9971 71.6111 28.1527L71.58 28.3862H65.1675C65.3543 29.5846 66.2414 30.4095 67.4399 30.4095C68.436 30.4095 69.043 29.8337 69.2142 29.4757H71.4088V29.4912ZM69.5566 26.9543C69.3699 25.8648 68.6539 25.0088 67.4555 25.0088C66.1792 25.0088 65.4321 25.8492 65.1831 26.9543H69.5566Z" fill="#697077"/>
<path d="M73.6033 25.4445H72.1714V23.4212H73.6033V22.1605C73.6033 20.8842 74.4282 20.0593 75.7045 20.0593H77.5566V21.9115H76.2959C75.9535 21.9115 75.7045 22.1605 75.7045 22.5029V23.4368H77.5566V25.4601H75.7045V32.0282H73.6033V25.4445Z" fill="#697077"/>
<path d="M86.6459 27.7169C86.6459 30.3317 84.7937 32.1839 82.2568 32.1839C79.7354 32.1839 77.8677 30.3317 77.8677 27.7169C77.8677 25.1021 79.7198 23.25 82.2568 23.25C84.7782 23.25 86.6459 25.1021 86.6459 27.7169ZM84.5292 27.7169C84.5292 26.2072 83.5175 25.1955 82.2568 25.1955C80.9961 25.1955 79.9844 26.2072 79.9844 27.7169C79.9844 29.2267 80.9961 30.2383 82.2568 30.2383C83.5175 30.2539 84.5292 29.2422 84.5292 27.7169Z" fill="#697077"/>
<path d="M87.9067 23.4212H89.8523L90.0235 24.2617H90.1013C90.2569 24.0749 90.4593 23.9037 90.6772 23.7636C91.0663 23.5146 91.6577 23.25 92.467 23.25C94.4126 23.25 95.8445 24.6819 95.8445 26.8765V32.0126H93.7433V27.0321C93.7433 25.9426 92.9807 25.18 91.8912 25.18C90.8017 25.18 90.039 25.9426 90.039 27.0321V32.0126H87.9379V23.4212H87.9067Z" fill="#697077"/>
<path d="M109.245 28.8064C108.981 30.1605 107.907 32.1839 105.199 32.1839C102.677 32.1839 100.81 30.3317 100.81 27.7169C100.81 25.1021 102.662 23.25 105.199 23.25C107.907 23.25 108.981 25.2733 109.245 26.534H107.144C106.957 26.0516 106.475 25.18 105.199 25.18C103.938 25.18 102.926 26.1916 102.926 27.7014C102.926 29.2111 103.938 30.2228 105.199 30.2228C106.459 30.2228 106.957 29.3823 107.144 28.7909H109.245V28.8064Z" fill="#697077"/>
<path d="M115.611 31.1723H115.533C115.377 31.3591 115.175 31.5303 114.942 31.6704C114.537 31.9194 113.945 32.1684 113.089 32.1684C111.128 32.1684 109.977 30.97 109.977 29.5536C109.977 27.8727 111.159 26.6898 113.51 26.6898H115.455V26.5186C115.455 25.5692 114.879 24.9155 113.945 24.9155C112.996 24.9155 112.514 25.5225 112.436 26.005H110.335C110.521 24.5886 111.673 23.219 113.961 23.219C116.156 23.219 117.587 24.6665 117.587 26.503V31.9816H115.813L115.611 31.1723ZM115.44 28.3085H113.665C112.576 28.3085 112.062 28.7287 112.062 29.398C112.062 30.0672 112.545 30.4875 113.416 30.4875C114.693 30.4875 115.44 29.7404 115.44 28.542V28.3085Z" fill="#697077"/>
<path d="M97.4321 23.4214H99.5333V32.0128H97.4321V23.4214Z" fill="#697077"/>
<path d="M98.4903 22.1761C99.1779 22.1761 99.7354 21.6186 99.7354 20.9309C99.7354 20.2433 99.1779 19.6858 98.4903 19.6858C97.8026 19.6858 97.2451 20.2433 97.2451 20.9309C97.2451 21.6186 97.8026 22.1761 98.4903 22.1761Z" fill="#697077"/>
<path d="M83.0196 19.7949H85.2142L83.1908 22.2385H81.4165L83.0196 19.7949Z" fill="#697077"/>
<path d="M4.77821 10.4563C7.41714 10.4563 9.55642 8.31704 9.55642 5.67811C9.55642 3.03918 7.41714 0.899902 4.77821 0.899902C2.13928 0.899902 0 3.03918 0 5.67811C0 8.31704 2.13928 10.4563 4.77821 10.4563Z" fill="#697077"/>
<path d="M15.9999 10.4563C18.6388 10.4563 20.7781 8.31704 20.7781 5.67811C20.7781 3.03918 18.6388 0.899902 15.9999 0.899902C13.361 0.899902 11.2217 3.03918 11.2217 5.67811C11.2217 8.31704 13.361 10.4563 15.9999 10.4563Z" fill="#697077"/>
<path d="M27.2372 10.4563C29.8761 10.4563 32.0154 8.31705 32.0154 5.67811C32.0154 3.03918 29.8761 0.899902 27.2372 0.899902C24.5983 0.899902 22.459 3.03918 22.459 5.67811C22.459 8.31705 24.5983 10.4563 27.2372 10.4563Z" fill="#697077"/>
<path d="M15.9999 21.6782C18.6388 21.6782 20.7781 19.539 20.7781 16.9C20.7781 14.2611 18.6388 12.1218 15.9999 12.1218C13.361 12.1218 11.2217 14.2611 11.2217 16.9C11.2217 19.539 13.361 21.6782 15.9999 21.6782Z" fill="#697077"/>
<path d="M15.9999 32.8999C18.6388 32.8999 20.7781 30.7606 20.7781 28.1217C20.7781 25.4828 18.6388 23.3435 15.9999 23.3435C13.361 23.3435 11.2217 25.4828 11.2217 28.1217C11.2217 30.7606 13.361 32.8999 15.9999 32.8999Z" fill="#697077"/>
</svg>
